<svg width="128" height="128" viewBox="0 0 128 128" fill="none" xmlns="http://www.w3.org/2000/svg">
<path d="M124.755 51.3819L124.578 50.9299L107.47 6.2819C107.122 5.40663 106.505 4.66414 105.709 4.1609C104.912 3.66622 103.983 3.42791 103.047 3.47816C102.11 3.52841 101.212 3.8648 100.473 4.4419C99.7421 5.03551 99.212 5.84006 98.955 6.7459L87.404 42.0879H40.629L29.077 6.7459C28.8264 5.83548 28.2952 5.0272 27.559 4.4359C26.8199 3.8588 25.9215 3.52241 24.9852 3.47216C24.0488 3.42191 23.1196 3.66022 22.323 4.1549C21.5287 4.66036 20.9128 5.40215 20.562 6.2759L3.422 50.9039L3.252 51.3559C-1.807 64.5749 2.489 79.5479 13.789 88.0719L13.848 88.1179L14.005 88.2289L40.066 107.745L52.959 117.503L60.813 123.433C61.7318 124.13 62.8535 124.508 64.007 124.508C65.1605 124.508 66.2822 124.13 67.201 123.433L75.055 117.503L87.948 107.745L114.166 88.1109L114.231 88.0589C125.504 79.5329 129.793 64.5869 124.755 51.3819Z" fill="#E24329"/>
<path d="M124.755 51.3819L124.578 50.9299C116.242 52.6411 108.386 56.1722 101.573 61.2709L64 89.6819C76.795 99.3619 87.934 107.772 87.934 107.772L114.152 88.1379L114.217 88.0859C125.508 79.5589 129.803 64.5979 124.755 51.3819Z" fill="#FC6D26"/>
<path d="M40.066 107.771L52.959 117.529L60.813 123.459C61.7318 124.156 62.8535 124.534 64.007 124.534C65.1604 124.534 66.2822 124.156 67.201 123.459L75.055 117.529L87.948 107.771C87.948 107.771 76.796 99.3349 64.001 89.6809C56.0177 95.7044 48.0394 101.734 40.066 107.771Z" fill="#FCA326"/>
<path d="M26.42 61.2711C19.612 56.1622 11.7585 52.6221 3.422 50.9041L3.252 51.3561C-1.807 64.5751 2.489 79.5481 13.789 88.0721L13.848 88.118L14.005 88.229L40.066 107.745L64 89.6551L26.42 61.2711Z" fill="#FC6D26"/>
</svg>
