<svg width="39" height="40" viewBox="0 0 39 40" fill="none" xmlns="http://www.w3.org/2000/svg">
<path d="M5.80034 35.5862L2.75194 0.519043H36.2481L33.1963 35.5809L19.4796 39.4809L5.80034 35.5862Z" fill="#E44D26"/>
<path d="M19.5 36.5L30.5839 33.3481L33.1917 3.38623H19.5V36.5Z" fill="#F16529"/>
<path d="M19.5 16.392H13.951L13.5677 11.9876H19.5V7.68701H8.98493L9.08548 8.84076L10.1159 20.693H19.5V16.392ZM19.5 27.5617L19.4814 27.567L14.8115 26.2733L14.5132 22.8436H10.3033L10.8908 29.5964L19.4808 32.042L19.5 32.0367V27.5617Z" fill="#EBEBEB"/>
<path d="M19.4854 16.392V20.693H24.6489L24.1623 26.2708L19.4854 27.5654V32.0401L28.0821 29.5964L28.1452 28.8698L29.1306 17.547L29.2326 16.392H28.1029H19.4854ZM19.4854 7.68701V11.9876H29.6144L29.6985 11.0214L29.8898 8.84076L29.9901 7.68701H19.4854Z" fill="white"/>
</svg>
