<svg width="39" height="40" viewBox="0 0 39 40" fill="none" xmlns="http://www.w3.org/2000/svg">
<g clip-path="url(#clip0_85_1138)">
<path d="M19.5 40C30.2696 40 39 31.0457 39 20C39 8.9543 30.2696 0 19.5 0C8.73045 0 0 8.9543 0 20C0 31.0457 8.73045 40 19.5 40Z" fill="black"/>
<path d="M32.3935 35.0044L14.9806 12H11.7V27.9934H14.3246V15.4184L30.3329 36.6322C31.0542 36.1371 31.7426 35.5933 32.3935 35.0044Z" fill="url(#paint0_linear_85_1138)"/>
<path d="M24.9167 12H27.5166V28H24.9167V12Z" fill="url(#paint1_linear_85_1138)"/>
</g>
<defs>
<linearGradient id="paint0_linear_85_1138" x1="23.6166" y1="25.8888" x2="31.5454" y2="35.4704" gradientUnits="userSpaceOnUse">
<stop stop-color="white"/>
<stop offset="1" stop-color="white" stop-opacity="0"/>
</linearGradient>
<linearGradient id="paint1_linear_85_1138" x1="26.2166" y1="12" x2="26.1708" y2="23.75" gradientUnits="userSpaceOnUse">
<stop stop-color="white"/>
<stop offset="1" stop-color="white" stop-opacity="0"/>
</linearGradient>
<clipPath id="clip0_85_1138">
<rect width="39" height="40" fill="white"/>
</clipPath>
</defs>
</svg>
