<svg width="766" height="568" viewBox="0 0 766 568" fill="none" xmlns="http://www.w3.org/2000/svg">
<g clip-path="url(#clip0_72_809)">
<path d="M723.977 557.397C723.977 557.397 737.326 362.568 747.814 314.373C758.302 266.178 706.815 255.924 632.446 249.772C558.076 243.619 523.752 248.746 507.543 260.026C491.334 271.305 484.145 404.466 473.219 451.779C462.292 499.092 454.15 560.473 454.15 560.473L723.977 557.397Z" fill="#263238" stroke="#263238" stroke-linecap="round" stroke-linejoin="round"/>
<path d="M66.532 395.935C76.734 409.655 81.7872 417.304 83.8848 420.77C81.2068 405.675 77.3083 390.859 72.2337 376.493C68.4162 365.354 66.0296 353.707 65.1399 341.875L66.0934 342.428L66.9706 340.603C66.6273 340.398 31.8453 320.546 22.0057 301.822L20.3467 302.847C29.2329 319.746 56.6924 336.871 64.2056 341.321C57.0737 340.583 34.801 336.953 21.548 319.336C5.62534 298.192 8.42848 271.982 8.42848 271.982C8.42848 271.982 38.4432 294.152 50.6093 311.276C56.2843 319.107 61.0488 327.654 64.7967 336.727C64.2575 322.766 65.2495 308.786 67.7524 295.075C57.7411 286.605 20.9187 254.058 16.8761 229.653C12.1851 201.454 18.783 153.075 18.783 153.075C22.5607 163.112 26.9432 172.875 31.9025 182.299C40.3311 198.419 66.5701 223.623 71.2611 250.817C72.4546 257.622 73.0926 264.525 73.168 271.449C77.3975 256.274 82.4531 241.38 88.3089 226.843C89.8564 222.952 91.1312 218.942 92.1227 214.846L92.9427 214.313C92.771 214.005 75.8759 183.365 75.8759 174.567H73.9689C73.9689 182.771 86.8597 207.176 90.4256 213.738C84.5332 209.924 74.9224 202.11 71.3565 189.969C65.979 171.942 73.9308 155.7 73.9308 155.7C73.9308 155.7 88.1754 178.259 92.0655 192.615C93.9052 199.182 95 205.965 95.3263 212.815C98.0532 205.35 102.229 195.219 107.035 188.349C115.463 176.249 121.089 158.12 121.089 158.12C121.089 158.12 131.386 177.254 123.892 197.414C117.733 213.964 100.208 220.321 94.144 222.024C93.4766 224.218 92.7329 226.351 91.913 228.402C83.7097 248.375 77.2865 269.141 72.7295 290.419C77.0963 284.164 85.3341 273.151 93.1334 266.999C104.46 258.057 114.739 242.388 114.739 242.388C114.739 242.388 119.43 263.922 106.825 280.883C96.5276 294.726 78.2214 295.403 71.8141 295.239C67.4855 319.644 66.9897 345.115 74.3313 369.725C74.808 364.947 77.4777 351.944 92.199 337.404C110.772 318.946 147.938 260.292 147.938 260.292C147.938 260.292 144.982 329.631 127.172 352.416C110.849 373.314 80.0329 372.083 74.9605 371.735C75.3038 372.822 75.647 373.909 76.0284 374.996C87.7559 408.896 90.2349 432.665 90.5209 445.237H112.45V555.08H51.5437V445.298H86.4402C86.2115 438.133 85.5234 430.992 84.3807 423.929L85.01 424.113L85.5248 422.062C85.1434 421.96 46.9862 410.393 20.3085 380.882L18.9355 382.297C40.4645 406.127 69.3352 418.391 80.4143 422.452C69.3924 420.996 42.4859 416.628 29.9956 407.932C14.0539 396.858 -9.15527e-05 363.593 -9.15527e-05 363.593C-9.15527e-05 363.593 51.5437 375.775 66.532 395.935ZM95.517 217.512C101.753 213.948 107.178 208.944 111.405 202.86C115.631 196.776 118.554 189.761 119.964 182.319L118.057 181.909C116.723 189.039 113.936 195.763 109.897 201.596C105.857 207.43 100.666 212.228 94.697 215.646L95.517 217.512ZM68.5533 295.772L68.9538 296.367L69.6784 296.038C70.7463 295.587 95.6695 284.554 105.814 268.619L104.232 267.45C95.3645 281.416 73.8927 291.875 69.6784 293.824C66.4557 288.491 46.2043 254.694 39.1678 233.447L37.3563 234.144C45.0792 257.401 68.3054 295.341 68.5533 295.731V295.772ZM77.4204 370.976C77.7065 370.873 107.416 358.835 120.65 331.231L118.953 330.308C106.062 357.194 77.0009 368.946 76.753 369.069L77.4204 370.976Z" fill="#263238"/>
<path d="M493.26 278.319C493.26 278.319 547.626 290.727 592.934 318.187C638.243 345.648 673.654 367.797 673.654 378.4C673.654 389.003 691.789 557.356 691.789 557.356H279.896C279.896 557.356 320.265 464.33 326.844 424.462C333.423 384.594 340.86 358.835 362.275 333.22C383.689 307.605 446.312 274.792 493.26 278.319Z" fill="white"/>
<mask id="mask0_72_809" style="mask-type:luminance" maskUnits="userSpaceOnUse" x="279" y="278" width="413" height="280">
<path d="M493.26 278.319C493.26 278.319 547.626 290.727 592.934 318.187C638.243 345.648 673.654 367.797 673.654 378.4C673.654 389.003 691.789 557.356 691.789 557.356H279.896C279.896 557.356 320.265 464.33 326.844 424.462C333.423 384.594 340.86 358.835 362.275 333.22C383.689 307.605 446.312 274.792 493.26 278.319Z" fill="white"/>
</mask>
<g mask="url(#mask0_72_809)">
<path d="M652.945 440.643C646.843 435.967 634.638 471.57 631.168 463.202C627.697 454.835 652.945 412.608 654.68 397.575C656.415 382.543 639.882 380.697 620.699 366.649C601.515 352.6 584.105 341.341 584.105 360.086C584.105 378.831 576.268 413.408 570.166 399.442C564.064 385.475 551.001 367.592 550.143 391.936C549.285 416.279 550.143 440.663 547.512 440.663C544.88 440.663 521.387 414.433 515.285 401.308C509.183 388.183 522.264 354.467 522.264 339.475C522.264 324.483 510.06 303.873 510.06 303.873L509.278 282.646C528.786 288.389 562.843 299.976 592.934 318.208C638.243 345.587 673.654 367.797 673.654 378.4C673.654 389.003 691.789 557.356 691.789 557.356H669.249C665.054 515.663 657.254 444.027 652.945 440.643Z" fill="#C6FF00"/>
<path opacity="0.5" d="M652.945 440.643C646.843 435.967 634.638 471.57 631.168 463.202C627.697 454.835 652.945 412.608 654.68 397.575C656.415 382.543 639.882 380.697 620.699 366.649C601.515 352.6 584.105 341.341 584.105 360.086C584.105 378.831 576.268 413.408 570.166 399.442C564.064 385.475 551.001 367.592 550.143 391.936C549.285 416.279 550.143 440.663 547.512 440.663C544.88 440.663 521.387 414.433 515.285 401.308C509.183 388.183 522.264 354.467 522.264 339.475C522.264 324.483 510.06 303.873 510.06 303.873L509.278 282.646C528.786 288.389 562.843 299.976 592.934 318.208C638.243 345.587 673.654 367.797 673.654 378.4C673.654 389.003 691.789 557.356 691.789 557.356H669.249C665.054 515.663 657.254 444.027 652.945 440.643Z" fill="white"/>
<path d="M390.402 319.685C390.402 319.685 361.798 334.717 350.986 349.77C359.676 333.622 372.77 320.736 388.495 312.855L390.402 319.685Z" fill="#263238" stroke="#263238" stroke-linecap="round" stroke-linejoin="round"/>
</g>
<path d="M493.26 278.319C493.26 278.319 547.626 290.727 592.934 318.187C638.243 345.648 673.654 367.797 673.654 378.4C673.654 389.003 691.789 557.356 691.789 557.356H279.896C279.896 557.356 320.265 464.33 326.844 424.462C333.423 384.594 340.86 358.835 362.275 333.22C383.689 307.605 446.312 274.792 493.26 278.319Z" stroke="#263238" stroke-linecap="round" stroke-linejoin="round"/>
<path d="M511.357 284.533C518.73 289.455 524.898 296.206 529.344 304.22C533.79 312.235 536.385 321.279 536.909 330.595C538.549 362.486 536.909 395.278 538.549 412.977C540.189 430.676 551.726 444.888 542.668 443.986C533.61 443.083 513.016 407.665 505.598 407.665C498.18 407.665 495.72 424.503 492.421 429.815C489.122 435.126 477.547 437.362 477.547 437.362C477.547 437.362 466.888 423.621 466.888 419.191C466.888 414.761 470.187 399.688 461.167 401.472C452.147 403.256 432.354 436.91 431.515 426.267C430.675 415.623 440.591 399.606 440.591 374.011C440.591 348.417 452.033 318.187 468.585 299.586C485.137 280.985 494.5 283.159 511.357 284.533Z" fill="white"/>
<mask id="mask1_72_809" style="mask-type:luminance" maskUnits="userSpaceOnUse" x="431" y="283" width="116" height="162">
<path d="M511.357 284.533C518.73 289.455 524.898 296.206 529.344 304.22C533.79 312.235 536.385 321.279 536.909 330.595C538.549 362.486 536.909 395.278 538.549 412.977C540.189 430.676 551.726 444.888 542.668 443.986C533.61 443.083 513.016 407.665 505.598 407.665C498.18 407.665 495.72 424.503 492.421 429.815C489.122 435.126 477.547 437.362 477.547 437.362C477.547 437.362 466.888 423.621 466.888 419.191C466.888 414.761 470.187 399.688 461.167 401.472C452.147 403.256 432.354 436.91 431.515 426.267C430.675 415.623 440.591 399.606 440.591 374.011C440.591 348.417 452.033 318.187 468.585 299.586C485.137 280.985 494.5 283.159 511.357 284.533Z" fill="white"/>
</mask>
<g mask="url(#mask1_72_809)">
<path d="M509.336 284.349L511.376 284.533C518.749 289.455 524.917 296.206 529.363 304.22C533.809 312.235 536.404 321.279 536.929 330.595C538.568 362.486 536.929 395.278 538.568 412.977C539.636 424.38 544.766 434.306 545.891 439.638C539.846 434.86 520.701 412.875 515.285 401.226C509.183 388.121 522.264 354.385 522.264 339.393C522.264 324.402 510.06 303.791 510.06 303.791L509.336 284.349Z" fill="#C6FF00"/>
<path opacity="0.5" d="M509.336 284.349L511.376 284.533C518.749 289.455 524.917 296.206 529.363 304.22C533.809 312.235 536.404 321.279 536.929 330.595C538.568 362.486 536.929 395.278 538.568 412.977C539.636 424.38 544.766 434.306 545.891 439.638C539.846 434.86 520.701 412.875 515.285 401.226C509.183 388.121 522.264 354.385 522.264 339.393C522.264 324.402 510.06 303.791 510.06 303.791L509.336 284.349Z" fill="white"/>
</g>
<path d="M511.357 284.533C518.73 289.455 524.898 296.206 529.344 304.22C533.79 312.235 536.385 321.279 536.909 330.595C538.549 362.486 536.909 395.278 538.549 412.977C540.189 430.676 551.726 444.888 542.668 443.986C533.61 443.083 513.016 407.665 505.598 407.665C498.18 407.665 495.72 424.503 492.421 429.815C489.122 435.126 477.547 437.362 477.547 437.362C477.547 437.362 466.888 423.621 466.888 419.191C466.888 414.761 470.187 399.688 461.167 401.472C452.147 403.256 432.354 436.91 431.515 426.267C430.675 415.623 440.591 399.606 440.591 374.011C440.591 348.417 452.033 318.187 468.585 299.586C485.137 280.985 494.5 283.159 511.357 284.533Z" stroke="#263238" stroke-linecap="round" stroke-linejoin="round"/>
<path d="M504.511 284.759C510.841 301.006 514.195 318.415 514.389 336.03C514.389 364.044 500.926 393.023 495.529 406.538C490.133 420.053 477.566 437.444 477.566 437.444C477.566 437.444 478.482 401.718 470.396 384.327C462.311 366.936 455.141 354.385 455.141 354.385C455.141 354.385 465.019 343.761 479.397 319.623C493.775 295.485 504.511 284.759 504.511 284.759Z" fill="white"/>
<mask id="mask2_72_809" style="mask-type:luminance" maskUnits="userSpaceOnUse" x="455" y="284" width="60" height="154">
<path d="M504.511 284.759C510.841 301.006 514.195 318.415 514.389 336.03C514.389 364.044 500.926 393.023 495.529 406.538C490.133 420.053 477.566 437.444 477.566 437.444C477.566 437.444 478.482 401.718 470.396 384.327C462.311 366.936 455.141 354.385 455.141 354.385C455.141 354.385 465.019 343.761 479.397 319.623C493.775 295.485 504.511 284.759 504.511 284.759Z" fill="white"/>
</mask>
<g mask="url(#mask2_72_809)">
<path d="M461.377 365.89L464.752 342.018C468.699 336.522 473.676 329.098 479.378 319.459C493.737 295.3 504.511 284.595 504.511 284.595C510.841 300.842 514.195 318.251 514.389 335.866C514.184 346.871 512.521 357.789 509.45 368.289L461.777 366.649L461.377 365.89Z" fill="#C6FF00"/>
<path opacity="0.5" d="M461.377 365.89L464.752 342.018C468.699 336.522 473.676 329.098 479.378 319.459C493.737 295.3 504.511 284.595 504.511 284.595C510.841 300.842 514.195 318.251 514.389 335.866C514.184 346.871 512.521 357.789 509.45 368.289L461.777 366.649L461.377 365.89Z" fill="white"/>
<path d="M479.378 319.541C493.737 295.382 504.511 284.677 504.511 284.677C510.841 300.924 514.195 318.333 514.389 335.948C514.346 341.727 513.836 347.491 512.863 353.175L472.666 354.508L462.845 344.643C468.745 336.58 474.263 328.202 479.378 319.541Z" fill="#263238" stroke="#263238" stroke-linecap="round" stroke-linejoin="round"/>
</g>
<path d="M504.511 284.759C510.841 301.006 514.195 318.415 514.389 336.03C514.389 364.044 500.926 393.023 495.529 406.538C490.133 420.053 477.566 437.444 477.566 437.444C477.566 437.444 478.482 401.718 470.396 384.327C462.311 366.936 455.141 354.385 455.141 354.385C455.141 354.385 465.019 343.761 479.397 319.623C493.775 295.485 504.511 284.759 504.511 284.759Z" stroke="#263238" stroke-linecap="round" stroke-linejoin="round"/>
<path d="M564.922 346.551C564.922 346.551 546.806 299.586 517.154 288.081" stroke="#263238" stroke-linecap="round" stroke-linejoin="round"/>
<path d="M643.181 385.516C643.181 385.516 618.392 428.933 615.169 466.135" stroke="#263238" stroke-linecap="round" stroke-linejoin="round"/>
<path d="M612.709 425.385C612.709 425.385 604.471 481.209 604.471 509.469C604.602 525.526 603.222 541.557 600.352 557.315" stroke="#263238" stroke-linecap="round" stroke-linejoin="round"/>
<path d="M605.291 497.144C600.634 475.357 598.419 453.049 598.693 430.696" stroke="#263238" stroke-linecap="round" stroke-linejoin="round"/>
<path d="M379.589 426.267C379.589 426.267 377.11 458.178 371.351 497.144C365.593 536.109 362.294 555.613 362.294 555.613" stroke="#263238" stroke-linecap="round" stroke-linejoin="round"/>
<path d="M513.95 501.84C513.95 501.84 531.398 540.047 533.973 545.605C536.547 551.163 540.437 560.884 540.437 560.884H509.45C509.45 560.884 492.021 548.374 490.076 547.676C488.131 546.979 477.166 547.676 469.424 544.21C461.682 540.744 453.921 531.7 446.179 529.629C438.437 527.557 428.101 524.071 424.859 524.071C421.618 524.071 410.653 527.537 403.559 527.537C396.465 527.537 387.408 519.908 393.128 516.442C398.849 512.976 403.464 515.047 411.206 510.884C418.948 506.721 421.541 505.326 429.283 506.783C437.025 508.239 443.49 503.317 462.216 499.153C480.942 494.99 502.337 493.514 513.95 501.84Z" fill="white" stroke="#263238" stroke-linecap="round" stroke-linejoin="round"/>
<path d="M459.87 480.511C459.87 480.511 449.706 471.201 441.354 475.692C433.002 480.183 436.873 509.1 434.775 520.667C432.678 532.233 430.294 538.324 435.672 538.981C441.049 539.637 443.147 535.125 447.323 524.85C451.499 514.576 459.87 480.511 459.87 480.511Z" fill="white" stroke="#263238" stroke-linecap="round" stroke-linejoin="round"/>
<path d="M484.66 486.295C484.66 486.295 471.216 473.436 465.248 473.436C459.279 473.436 454.493 496.241 449.992 506.249C445.492 516.257 438.894 528.111 441.64 531.269C444.386 534.428 450.011 535.761 454.798 530.306C459.584 524.85 470.053 500.753 473.009 496.897C476.613 493.022 480.51 489.475 484.66 486.295Z" fill="white" stroke="#263238" stroke-linecap="round" stroke-linejoin="round"/>
<path d="M498.409 490.786C498.409 490.786 497.513 486.295 484.66 486.295C471.808 486.295 460.767 505.572 453.005 510.064C445.244 514.555 447.628 516.483 453.291 519.375C458.955 522.266 462.559 519.067 473.905 512.32C485.251 505.572 498.409 490.786 498.409 490.786Z" fill="white" stroke="#263238" stroke-linecap="round" stroke-linejoin="round"/>
<path d="M512.673 522.676L503.615 506.7C499.405 507.593 495.436 509.492 492.002 512.258C487.482 516.36 479.092 524.768 468.756 524.768C458.421 524.768 455.198 521.302 459.069 517.816C462.94 514.33 474.573 508.095 482.963 501.84C491.353 495.585 497.818 485.187 504.263 487.258C510.708 489.33 515.171 502.537 522.341 519.908" fill="white"/>
<path d="M512.673 522.676L503.615 506.7C499.405 507.593 495.436 509.492 492.002 512.258C487.482 516.36 479.092 524.768 468.756 524.768C458.421 524.768 455.198 521.302 459.069 517.816C462.94 514.33 474.573 508.095 482.963 501.84C491.353 495.585 497.818 485.187 504.263 487.258C510.708 489.33 515.171 502.537 522.341 519.908" stroke="#263238" stroke-linecap="round" stroke-linejoin="round"/>
<path d="M368.167 216.712C368.167 216.712 370.665 256.396 374.65 270.341C378.636 284.287 384.185 327.211 396.103 345.976C408.021 364.741 423.525 380.841 440.992 381.927C458.459 383.014 481.876 349.729 495.358 328.278C508.84 306.826 510.308 285.374 514.808 264.455C519.309 243.537 520.281 219.337 513.302 200.613C506.323 181.889 471.35 158.776 441.983 161.462C412.617 164.149 375.661 180.781 368.167 193.107C366.032 196.615 364.895 200.717 364.895 204.909C364.895 209.102 366.032 213.204 368.167 216.712Z" fill="white"/>
<mask id="mask3_72_809" style="mask-type:luminance" maskUnits="userSpaceOnUse" x="364" y="161" width="155" height="221">
<path d="M368.167 216.712C368.167 216.712 370.665 256.396 374.65 270.341C378.636 284.287 384.185 327.211 396.103 345.976C408.021 364.741 423.525 380.841 440.992 381.927C458.459 383.014 481.876 349.729 495.358 328.278C508.84 306.826 510.308 285.374 514.808 264.455C519.309 243.537 520.281 219.337 513.302 200.613C506.323 181.889 471.35 158.776 441.983 161.462C412.617 164.149 375.661 180.781 368.167 193.107C366.032 196.615 364.895 200.717 364.895 204.909C364.895 209.102 366.032 213.204 368.167 216.712Z" fill="white"/>
</mask>
<g mask="url(#mask3_72_809)">
<path d="M513.264 200.613C520.243 219.399 519.251 243.537 514.77 264.456C510.289 285.374 508.783 306.826 495.32 328.278C481.857 349.729 458.402 382.994 440.954 381.928C433.774 381.28 426.883 378.591 420.988 374.134L429.856 375.057C448.162 376.923 456.876 363.819 468.204 338.511C479.531 313.204 472.551 298.233 476.918 293.536C481.285 288.84 481.266 255.124 481.266 255.124C481.266 255.124 477.776 240.133 476.041 234.616C474.306 229.099 455.999 221.49 455.999 221.49C455.999 221.49 455.999 235.539 443.452 234.513C430.904 233.488 422.018 218.681 422.018 218.681L423.773 164.682C429.757 163.2 435.829 162.158 441.945 161.565C471.312 158.776 506.323 181.848 513.264 200.613Z" fill="#C6FF00"/>
<path opacity="0.5" d="M513.264 200.613C520.243 219.399 519.251 243.537 514.77 264.456C510.289 285.374 508.783 306.826 495.32 328.278C481.857 349.729 458.402 382.994 440.954 381.928C433.774 381.28 426.883 378.591 420.988 374.134L429.856 375.057C448.162 376.923 456.876 363.819 468.204 338.511C479.531 313.204 472.551 298.233 476.918 293.536C481.285 288.84 481.266 255.124 481.266 255.124C481.266 255.124 477.776 240.133 476.041 234.616C474.306 229.099 455.999 221.49 455.999 221.49C455.999 221.49 455.999 235.539 443.452 234.513C430.904 233.488 422.018 218.681 422.018 218.681L423.773 164.682C429.757 163.2 435.829 162.158 441.945 161.565C471.312 158.776 506.323 181.848 513.264 200.613Z" fill="white"/>
</g>
<path d="M368.167 216.712C368.167 216.712 370.665 256.396 374.65 270.341C378.636 284.287 384.185 327.211 396.103 345.976C408.021 364.741 423.525 380.841 440.992 381.927C458.459 383.014 481.876 349.729 495.358 328.278C508.84 306.826 510.308 285.374 514.808 264.455C519.309 243.537 520.281 219.337 513.302 200.613C506.323 181.889 471.35 158.776 441.983 161.462C412.617 164.149 375.661 180.781 368.167 193.107C366.032 196.615 364.895 200.717 364.895 204.909C364.895 209.102 366.032 213.204 368.167 216.712Z" stroke="#263238" stroke-linecap="round" stroke-linejoin="round"/>
<path d="M418.547 269.808C418.547 269.808 418.052 297.166 405.085 304.139C404.656 304.307 404.268 304.576 403.95 304.928C403.631 305.279 403.391 305.703 403.246 306.168C403.101 306.634 403.056 307.128 403.113 307.615C403.171 308.101 403.33 308.568 403.578 308.979C405.085 312.732 416.545 314.865 424.554 308.425" stroke="#263238" stroke-linecap="round" stroke-linejoin="round"/>
<path d="M407.526 246.572C408.115 246.572 408.69 246.375 409.172 246.01C409.654 245.644 410.019 245.128 410.217 244.531C410.416 243.933 410.438 243.285 410.28 242.674C410.122 242.063 409.793 241.519 409.337 241.117C408.879 240.707 397.896 231.191 380.428 237.774C379.713 238.046 379.127 238.613 378.8 239.349C378.472 240.086 378.431 240.932 378.684 241.701C378.936 242.471 379.463 243.101 380.148 243.453C380.833 243.805 381.62 243.85 382.335 243.578C396.771 238.123 405.619 245.793 405.695 245.875C406.211 246.33 406.858 246.577 407.526 246.572Z" fill="#263238"/>
<path d="M437.578 242.819C438.079 242.82 438.57 242.68 439.005 242.414C439.44 242.148 439.802 241.764 440.057 241.302C440.363 240.748 447.227 228.607 460.728 230.617C461.479 230.728 462.24 230.514 462.845 230.021C463.449 229.529 463.847 228.799 463.951 227.992C464.049 227.183 463.849 226.364 463.392 225.712C462.936 225.061 462.26 224.627 461.51 224.505C444.119 221.921 435.481 237.528 435.119 238.205C434.737 238.909 434.631 239.748 434.825 240.536C435.018 241.324 435.494 241.998 436.148 242.409C436.583 242.68 437.076 242.822 437.578 242.819Z" fill="#263238"/>
<path d="M429.074 337.896H420.988" stroke="#263238" stroke-linecap="round" stroke-linejoin="round"/>
<path d="M502.337 138.452C502.337 138.452 534.755 149.732 537.253 163.677C539.751 177.623 523.275 226.433 523.771 232.319C524.267 238.205 529.263 243.065 523.771 251.638C518.279 260.21 508.325 273.09 504.32 266.117C500.316 259.144 505.827 248.951 499.343 244.665C492.86 240.379 483.878 233.406 488.874 224.28C493.87 215.153 491.353 201.72 480.884 200.141C470.415 198.562 461.434 191.036 466.926 199.608C472.418 208.181 488.359 229.12 479.893 230.719C471.426 232.319 437.941 208.16 437.941 208.16C437.941 208.16 449.382 232.77 443.433 234.431C437.483 236.092 390.554 202.787 390.554 202.787C390.554 202.787 368.11 234.431 363.628 232.278C359.147 230.124 362.122 212.446 362.122 212.446C362.122 212.446 358.632 236.051 351.653 237.056C344.674 238.061 335.196 225.243 338.19 217.204C341.184 209.165 346.218 197.926 346.218 197.926C346.218 197.926 336.245 195.24 332.26 190.4C328.274 185.56 328.77 185.047 337.256 183.427C345.742 181.807 352.206 171.635 360.139 162.508C368.072 153.382 381.115 141.057 381.115 141.057C381.115 141.057 366.165 148.029 374.136 139.99C382.106 131.951 424.516 113.698 447.456 113.698C470.396 113.698 478.939 126.598 478.939 126.598C478.939 126.598 474.954 110.499 479.454 112.652C483.954 114.806 488.989 127.665 488.989 127.665C488.989 127.665 499.458 124.445 504.93 128.218C510.403 131.992 511.929 135.724 507.429 135.724C504.902 135.688 502.384 136.047 499.953 136.791L502.337 138.452Z" fill="#263238"/>
<mask id="mask4_72_809" style="mask-type:luminance" maskUnits="userSpaceOnUse" x="329" y="112" width="209" height="157">
<path d="M502.337 138.452C502.337 138.452 534.755 149.732 537.253 163.677C539.751 177.623 523.275 226.433 523.771 232.319C524.267 238.205 529.263 243.065 523.771 251.638C518.279 260.21 508.325 273.09 504.32 266.117C500.316 259.144 505.827 248.951 499.343 244.665C492.86 240.379 483.878 233.406 488.874 224.28C493.87 215.153 491.353 201.72 480.884 200.141C470.415 198.562 461.434 191.036 466.926 199.608C472.418 208.181 488.359 229.12 479.893 230.719C471.426 232.319 437.941 208.16 437.941 208.16C437.941 208.16 449.382 232.77 443.433 234.431C437.483 236.092 390.554 202.787 390.554 202.787C390.554 202.787 368.11 234.431 363.628 232.278C359.147 230.124 362.122 212.446 362.122 212.446C362.122 212.446 358.632 236.051 351.653 237.056C344.674 238.061 335.196 225.243 338.19 217.204C341.184 209.165 346.218 197.926 346.218 197.926C346.218 197.926 336.245 195.24 332.26 190.4C328.274 185.56 328.77 185.047 337.256 183.427C345.742 181.807 352.206 171.635 360.139 162.508C368.072 153.382 381.115 141.057 381.115 141.057C381.115 141.057 366.165 148.029 374.136 139.99C382.106 131.951 424.516 113.698 447.456 113.698C470.396 113.698 478.939 126.598 478.939 126.598C478.939 126.598 474.954 110.499 479.454 112.652C483.954 114.806 488.989 127.665 488.989 127.665C488.989 127.665 499.458 124.445 504.93 128.218C510.403 131.992 511.929 135.724 507.429 135.724C504.902 135.688 502.384 136.047 499.953 136.791L502.337 138.452Z" fill="white"/>
</mask>
<g mask="url(#mask4_72_809)">
<g opacity="0.2">
<path d="M504.32 266.055C500.335 259.082 505.827 248.89 499.343 244.603C492.86 240.317 483.878 233.344 488.874 224.218C493.87 215.092 491.353 201.659 480.884 200.08C473.009 198.87 465.972 194.317 465.305 195.814C461.93 190.81 460.48 186.995 465.305 188.533C474.572 191.528 503.291 196.511 500.526 206.478C497.76 216.445 495.892 221.408 503.291 224.403C510.689 227.397 510.708 234.37 510.708 242.347C510.708 249.156 513.702 260.456 514.522 263.594C510.499 267.655 506.513 269.89 504.32 266.055Z" fill="white"/>
<path d="M362.179 212.426L361.531 222.413C361.531 222.413 361.397 223.008 361.226 223.992C361.238 220.302 361.532 216.619 362.103 212.979C361.512 216.527 358.06 236.113 351.71 237.097C344.731 238.164 335.254 225.284 338.248 217.245C338.896 215.522 339.64 213.636 340.383 211.749C342.691 215.625 345.856 219.419 349.479 219.419C356.897 219.419 362.179 212.426 362.179 212.426Z" fill="white"/>
<path d="M372.038 226.248C378.178 211.4 384.91 192.143 388.399 186.544C393.948 177.582 413.418 210.457 430.084 221.408C436.892 225.879 441.793 227.828 444.901 227.869C445.511 231.293 445.301 234.021 443.49 234.411C437.502 236.031 390.611 202.766 390.611 202.766C384.808 210.939 378.608 218.777 372.038 226.248Z" fill="white"/>
<path d="M481.857 224.854C482.772 227.951 482.429 230.166 479.95 230.658C473.543 231.868 452.948 218.353 443.223 211.749C437.712 204.469 430.885 199.977 430.141 193.517C429.226 185.539 464.466 217.43 476.46 223.418C478.103 224.42 479.97 224.916 481.857 224.854Z" fill="white"/>
</g>
</g>
<path d="M502.337 138.452C502.337 138.452 534.755 149.732 537.253 163.677C539.751 177.623 523.275 226.433 523.771 232.319C524.267 238.205 529.263 243.065 523.771 251.638C518.279 260.21 508.325 273.09 504.32 266.117C500.316 259.144 505.827 248.951 499.343 244.665C492.86 240.379 483.878 233.406 488.874 224.28C493.87 215.153 491.353 201.72 480.884 200.141C470.415 198.562 461.434 191.036 466.926 199.608C472.418 208.181 488.359 229.12 479.893 230.719C471.426 232.319 437.941 208.16 437.941 208.16C437.941 208.16 449.382 232.77 443.433 234.431C437.483 236.092 390.554 202.787 390.554 202.787C390.554 202.787 368.11 234.431 363.628 232.278C359.147 230.124 362.122 212.446 362.122 212.446C362.122 212.446 358.632 236.051 351.653 237.056C344.674 238.061 335.196 225.243 338.19 217.204C341.184 209.165 346.218 197.926 346.218 197.926C346.218 197.926 336.245 195.24 332.26 190.4C328.274 185.56 328.77 185.047 337.256 183.427C345.742 181.807 352.206 171.635 360.139 162.508C368.072 153.382 381.115 141.057 381.115 141.057C381.115 141.057 366.165 148.029 374.136 139.99C382.106 131.951 424.516 113.698 447.456 113.698C470.396 113.698 478.939 126.598 478.939 126.598C478.939 126.598 474.954 110.499 479.454 112.652C483.954 114.806 488.989 127.665 488.989 127.665C488.989 127.665 499.458 124.445 504.93 128.218C510.403 131.992 511.929 135.724 507.429 135.724C504.902 135.688 502.384 136.047 499.953 136.791L502.337 138.452Z" stroke="#263238" stroke-linecap="round" stroke-linejoin="round"/>
<path d="M428.616 248.623C428.616 248.623 435.9 240.194 455.503 240.789C475.106 241.384 489.122 245.014 493.031 247.434C496.941 249.854 494.71 252.848 493.604 257.073C492.497 261.297 489.675 281.149 485.194 288.984C480.713 296.818 468.947 303.442 461.11 303.442C453.272 303.442 448.791 301.637 440.382 295.013C431.972 288.389 426.385 264.25 425.813 262.487C425.241 260.723 425.813 257.073 420.226 258.877C414.638 260.682 414.066 287.179 412.369 292.614C410.672 298.048 399.498 305.247 390.535 305.247C381.573 305.247 373.163 300.427 365.879 286.584C361.528 278.359 359.763 268.843 360.844 259.451C360.844 259.451 353.007 252.827 359.166 250.407C365.326 247.987 386.511 241.671 400.051 246.203C416.297 251.638 424.707 250.428 428.616 248.623Z" fill="#263238"/>
<path d="M490.228 248.028L527.775 253.443V258.262L490.8 255.862C490.8 255.862 494.195 249.833 490.228 248.028Z" fill="#263238"/>
<path d="M390.554 299.381C401.538 299.381 407.144 293.106 408.365 282.216C409.833 269.172 411.13 260.087 414.943 255.719C409.334 255.002 403.803 253.697 398.43 251.822C395.283 250.884 392.026 250.441 388.762 250.51C380.437 250.758 372.182 252.213 364.22 254.837L366.794 257.052L366.222 260.518C365.4 268.551 366.947 276.658 370.646 283.692C378.026 297.761 385.501 299.381 390.554 299.381ZM461.11 297.577C466.83 297.577 476.956 292.183 480.541 285.907C483.421 280.903 485.823 268.229 487.12 261.441C487.635 258.693 488.016 256.703 488.34 255.452C488.665 254.201 488.932 253.504 489.237 252.602L489.408 252.089C485.003 250.038 472.532 247.208 455.351 246.675H453.444C438.398 246.675 432.601 252.581 432.468 252.643L431.686 253.566L430.618 254.058C429.888 254.378 429.144 254.659 428.387 254.899C429.689 256.42 430.533 258.328 430.809 260.374V260.764C430.809 260.867 430.981 261.359 431.171 262.097C436.739 283.241 441.564 288.86 443.395 290.296C451.537 296.51 454.931 297.577 461.11 297.577Z" fill="#C6FF00"/>
<path d="M474.306 256.478H477.185C477.371 256.473 477.547 256.391 477.679 256.25C477.81 256.109 477.886 255.919 477.891 255.719C477.891 255.518 477.816 255.325 477.684 255.182C477.552 255.04 477.372 254.96 477.185 254.96H474.306C474.213 254.96 474.121 254.98 474.036 255.018C473.95 255.056 473.872 255.112 473.807 255.182C473.741 255.253 473.689 255.336 473.654 255.429C473.618 255.521 473.6 255.619 473.6 255.719C473.605 255.919 473.681 256.109 473.812 256.25C473.943 256.391 474.12 256.473 474.306 256.478ZM473.6 259.246C473.6 259.147 473.618 259.048 473.654 258.956C473.689 258.864 473.741 258.78 473.807 258.71C473.872 258.639 473.95 258.583 474.036 258.545C474.121 258.507 474.213 258.488 474.306 258.488H477.185C477.372 258.488 477.552 258.567 477.684 258.71C477.816 258.852 477.891 259.045 477.891 259.246C477.886 259.446 477.81 259.636 477.679 259.777C477.547 259.918 477.371 260 477.185 260.005H474.306C474.12 260 473.943 259.918 473.812 259.777C473.681 259.636 473.605 259.446 473.6 259.246ZM473.6 262.774C473.605 262.574 473.681 262.384 473.812 262.243C473.943 262.102 474.12 262.02 474.306 262.015H477.185C477.371 262.02 477.547 262.102 477.679 262.243C477.81 262.384 477.886 262.574 477.891 262.774C477.891 262.975 477.816 263.168 477.684 263.31C477.552 263.453 477.372 263.533 477.185 263.533H474.306C474.213 263.533 474.121 263.513 474.036 263.475C473.95 263.437 473.872 263.381 473.807 263.31C473.741 263.24 473.689 263.156 473.654 263.064C473.618 262.972 473.6 262.873 473.6 262.774ZM473.6 266.301C473.605 266.102 473.681 265.912 473.812 265.77C473.943 265.629 474.12 265.548 474.306 265.542H477.185C477.371 265.548 477.547 265.629 477.679 265.77C477.81 265.912 477.886 266.102 477.891 266.301C477.891 266.502 477.816 266.695 477.684 266.838C477.552 266.98 477.372 267.06 477.185 267.06H474.306C474.213 267.06 474.121 267.04 474.036 267.002C473.95 266.964 473.872 266.908 473.807 266.838C473.741 266.767 473.689 266.684 473.654 266.592C473.618 266.5 473.6 266.401 473.6 266.301ZM473.6 269.829C473.605 269.629 473.681 269.439 473.812 269.298C473.943 269.157 474.12 269.075 474.306 269.07H477.185C477.371 269.075 477.547 269.157 477.679 269.298C477.81 269.439 477.886 269.629 477.891 269.829C477.891 270.03 477.816 270.223 477.684 270.365C477.552 270.508 477.372 270.587 477.185 270.587H474.306C474.213 270.587 474.121 270.568 474.036 270.53C473.95 270.492 473.872 270.436 473.807 270.365C473.741 270.295 473.689 270.211 473.654 270.119C473.618 270.027 473.6 269.928 473.6 269.829ZM473.6 273.356C473.605 273.156 473.681 272.967 473.812 272.825C473.943 272.684 474.12 272.602 474.306 272.597H477.185C477.371 272.602 477.547 272.684 477.679 272.825C477.81 272.967 477.886 273.156 477.891 273.356C477.891 273.557 477.816 273.75 477.684 273.893C477.552 274.035 477.372 274.115 477.185 274.115H474.306C474.213 274.115 474.121 274.095 474.036 274.057C473.95 274.019 473.872 273.963 473.807 273.893C473.741 273.822 473.689 273.739 473.654 273.647C473.618 273.554 473.6 273.456 473.6 273.356ZM473.6 276.884C473.605 276.684 473.681 276.494 473.812 276.353C473.943 276.212 474.12 276.13 474.306 276.125H477.185C477.355 276.155 477.509 276.248 477.62 276.389C477.731 276.53 477.792 276.709 477.792 276.894C477.792 277.079 477.731 277.257 477.62 277.398C477.509 277.539 477.355 277.633 477.185 277.663H474.306C474.117 277.658 473.937 277.573 473.805 277.427C473.674 277.282 473.6 277.087 473.6 276.884ZM473.6 280.411C473.605 280.211 473.681 280.021 473.812 279.88C473.943 279.739 474.12 279.657 474.306 279.652H477.185C477.355 279.682 477.509 279.776 477.62 279.917C477.731 280.058 477.792 280.236 477.792 280.421C477.792 280.606 477.731 280.785 477.62 280.926C477.509 281.067 477.355 281.16 477.185 281.19H474.306C474.117 281.185 473.937 281.101 473.805 280.955C473.674 280.809 473.6 280.614 473.6 280.411ZM462.864 255.801C462.861 255.701 462.878 255.601 462.912 255.507C462.947 255.414 462.999 255.329 463.065 255.258C463.131 255.187 463.21 255.131 463.297 255.094C463.383 255.057 463.476 255.039 463.57 255.042H471.102C471.195 255.039 471.288 255.057 471.375 255.094C471.462 255.131 471.541 255.187 471.607 255.258C471.673 255.329 471.725 255.414 471.759 255.507C471.794 255.601 471.81 255.701 471.807 255.801C471.807 256.002 471.733 256.195 471.601 256.337C471.468 256.48 471.289 256.56 471.102 256.56H463.57C463.47 256.56 463.372 256.538 463.281 256.495C463.19 256.452 463.108 256.389 463.042 256.309C462.975 256.23 462.925 256.136 462.894 256.035C462.864 255.933 462.853 255.825 462.864 255.719V255.801ZM462.864 259.328C462.861 259.228 462.878 259.128 462.912 259.035C462.947 258.941 462.999 258.857 463.065 258.786C463.131 258.714 463.21 258.659 463.297 258.622C463.383 258.584 463.476 258.567 463.57 258.57H471.102C471.195 258.567 471.288 258.584 471.375 258.622C471.462 258.659 471.541 258.714 471.607 258.786C471.673 258.857 471.725 258.941 471.759 259.035C471.794 259.128 471.81 259.228 471.807 259.328C471.807 259.53 471.733 259.723 471.601 259.865C471.468 260.007 471.289 260.087 471.102 260.087H463.57C463.47 260.088 463.372 260.066 463.281 260.023C463.19 259.98 463.108 259.916 463.042 259.837C462.975 259.757 462.925 259.664 462.894 259.562C462.864 259.46 462.853 259.353 462.864 259.246V259.328ZM462.864 262.856C462.864 262.655 462.938 262.462 463.071 262.319C463.203 262.177 463.382 262.097 463.57 262.097H471.102C471.289 262.097 471.468 262.177 471.601 262.319C471.733 262.462 471.807 262.655 471.807 262.856C471.81 262.956 471.794 263.056 471.759 263.15C471.725 263.243 471.673 263.328 471.607 263.399C471.541 263.47 471.462 263.525 471.375 263.563C471.288 263.6 471.195 263.617 471.102 263.615H463.57C463.469 263.619 463.369 263.599 463.277 263.557C463.184 263.515 463.101 263.452 463.034 263.371C462.967 263.291 462.917 263.196 462.887 263.093C462.858 262.99 462.85 262.881 462.864 262.774V262.856ZM462.864 266.383C462.864 266.182 462.938 265.989 463.071 265.847C463.203 265.704 463.382 265.624 463.57 265.624H471.102C471.289 265.624 471.468 265.704 471.601 265.847C471.733 265.989 471.807 266.182 471.807 266.383C471.81 266.484 471.794 266.584 471.759 266.677C471.725 266.77 471.673 266.855 471.607 266.926C471.541 266.997 471.462 267.053 471.375 267.09C471.288 267.127 471.195 267.145 471.102 267.142H463.57C463.469 267.146 463.369 267.126 463.277 267.084C463.184 267.042 463.101 266.979 463.034 266.899C462.967 266.819 462.917 266.724 462.887 266.62C462.858 266.517 462.85 266.408 462.864 266.301V266.383ZM462.864 269.911C462.864 269.709 462.938 269.516 463.071 269.374C463.203 269.232 463.382 269.152 463.57 269.152H471.102C471.289 269.152 471.468 269.232 471.601 269.374C471.733 269.516 471.807 269.709 471.807 269.911C471.81 270.011 471.794 270.111 471.759 270.204C471.725 270.298 471.673 270.383 471.607 270.454C471.541 270.525 471.462 270.58 471.375 270.618C471.288 270.655 471.195 270.672 471.102 270.67H463.57C463.469 270.674 463.369 270.654 463.277 270.612C463.184 270.57 463.101 270.507 463.034 270.426C462.967 270.346 462.917 270.251 462.887 270.148C462.858 270.045 462.85 269.936 462.864 269.829V269.911ZM453.825 273.438C453.83 273.235 453.909 273.042 454.044 272.9C454.18 272.759 454.361 272.679 454.55 272.679H462.082C462.268 272.685 462.444 272.766 462.576 272.907C462.707 273.048 462.783 273.239 462.788 273.438C462.788 273.639 462.713 273.832 462.581 273.975C462.449 274.117 462.269 274.197 462.082 274.197H454.55C454.449 274.201 454.348 274.181 454.255 274.139C454.162 274.097 454.078 274.034 454.009 273.954C453.94 273.875 453.889 273.78 453.857 273.677C453.825 273.574 453.814 273.464 453.825 273.356V273.438ZM453.825 276.966C453.83 276.762 453.909 276.569 454.044 276.428C454.18 276.286 454.361 276.207 454.55 276.207H462.082C462.252 276.237 462.406 276.33 462.517 276.471C462.629 276.612 462.69 276.791 462.69 276.976C462.69 277.161 462.629 277.34 462.517 277.48C462.406 277.621 462.252 277.715 462.082 277.745H454.55C454.448 277.746 454.347 277.723 454.254 277.679C454.161 277.635 454.077 277.57 454.009 277.488C453.94 277.407 453.889 277.311 453.857 277.207C453.825 277.103 453.815 276.993 453.825 276.884V276.966ZM453.825 280.493C453.83 280.29 453.909 280.097 454.044 279.955C454.18 279.813 454.361 279.734 454.55 279.734H462.082C462.252 279.764 462.406 279.858 462.517 279.999C462.629 280.14 462.69 280.318 462.69 280.503C462.69 280.688 462.629 280.867 462.517 281.008C462.406 281.149 462.252 281.242 462.082 281.272H454.55C454.448 281.273 454.347 281.25 454.254 281.206C454.161 281.162 454.077 281.097 454.009 281.016C453.94 280.935 453.889 280.839 453.857 280.734C453.825 280.63 453.815 280.52 453.825 280.411V280.493ZM459.546 255.883C459.546 255.649 459.632 255.425 459.786 255.259C459.94 255.094 460.149 255.001 460.366 255.001C460.583 255.001 460.792 255.094 460.946 255.259C461.1 255.425 461.186 255.649 461.186 255.883C461.186 256.117 461.1 256.341 460.946 256.507C460.792 256.672 460.583 256.765 460.366 256.765C460.244 256.767 460.123 256.74 460.013 256.686C459.902 256.632 459.803 256.552 459.725 256.452C459.646 256.351 459.589 256.234 459.559 256.107C459.528 255.98 459.523 255.848 459.546 255.719V255.883ZM457.086 255.883C457.086 255.649 457.173 255.425 457.326 255.259C457.48 255.094 457.689 255.001 457.906 255.001C458.124 255.001 458.332 255.094 458.486 255.259C458.64 255.425 458.726 255.649 458.726 255.883C458.726 256.117 458.64 256.341 458.486 256.507C458.332 256.672 458.124 256.765 457.906 256.765C457.784 256.767 457.664 256.74 457.553 256.686C457.442 256.632 457.343 256.552 457.265 256.452C457.186 256.351 457.13 256.234 457.099 256.107C457.068 255.98 457.063 255.848 457.086 255.719V255.883ZM454.626 255.883C454.626 255.649 454.713 255.425 454.866 255.259C455.02 255.094 455.229 255.001 455.446 255.001C455.664 255.001 455.872 255.094 456.026 255.259C456.18 255.425 456.266 255.649 456.266 255.883C456.266 256.117 456.18 256.341 456.026 256.507C455.872 256.672 455.664 256.765 455.446 256.765C455.324 256.767 455.204 256.74 455.093 256.686C454.982 256.632 454.883 256.552 454.805 256.452C454.726 256.351 454.67 256.234 454.639 256.107C454.608 255.98 454.604 255.848 454.626 255.719V255.883ZM452.147 255.883C452.143 255.704 452.189 255.527 452.279 255.376C452.369 255.225 452.499 255.106 452.652 255.035C452.805 254.963 452.974 254.943 453.138 254.975C453.302 255.007 453.453 255.092 453.572 255.217C453.692 255.342 453.774 255.503 453.808 255.679C453.841 255.854 453.826 256.037 453.763 256.203C453.7 256.369 453.593 256.511 453.454 256.611C453.316 256.711 453.153 256.765 452.986 256.765C452.864 256.767 452.743 256.739 452.631 256.685C452.519 256.631 452.42 256.552 452.34 256.452C452.26 256.352 452.202 256.235 452.168 256.108C452.135 255.982 452.128 255.849 452.147 255.719V255.883ZM449.687 255.883C449.687 255.649 449.774 255.425 449.927 255.259C450.081 255.094 450.29 255.001 450.507 255.001C450.725 255.001 450.933 255.094 451.087 255.259C451.241 255.425 451.327 255.649 451.327 255.883C451.327 256.117 451.241 256.341 451.087 256.507C450.933 256.672 450.725 256.765 450.507 256.765C450.385 256.767 450.265 256.74 450.154 256.686C450.043 256.632 449.945 256.552 449.866 256.452C449.788 256.351 449.731 256.234 449.7 256.107C449.669 255.98 449.665 255.848 449.687 255.719V255.883ZM447.227 255.883C447.227 255.649 447.314 255.425 447.468 255.259C447.621 255.094 447.83 255.001 448.047 255.001C448.265 255.001 448.473 255.094 448.627 255.259C448.781 255.425 448.867 255.649 448.867 255.883C448.867 256.117 448.781 256.341 448.627 256.507C448.473 256.672 448.265 256.765 448.047 256.765C447.926 256.767 447.805 256.74 447.694 256.686C447.583 256.632 447.485 256.552 447.406 256.452C447.328 256.351 447.271 256.234 447.24 256.107C447.209 255.98 447.205 255.848 447.227 255.719V255.883ZM459.546 262.938C459.546 262.704 459.632 262.48 459.786 262.314C459.94 262.149 460.149 262.056 460.366 262.056C460.583 262.056 460.792 262.149 460.946 262.314C461.1 262.48 461.186 262.704 461.186 262.938C461.186 263.172 461.1 263.396 460.946 263.561C460.792 263.727 460.583 263.82 460.366 263.82C460.244 263.822 460.123 263.795 460.013 263.741C459.902 263.687 459.803 263.607 459.725 263.506C459.646 263.406 459.589 263.289 459.559 263.162C459.528 263.035 459.523 262.903 459.546 262.774V262.938ZM457.086 262.938C457.086 262.704 457.173 262.48 457.326 262.314C457.48 262.149 457.689 262.056 457.906 262.056C458.124 262.056 458.332 262.149 458.486 262.314C458.64 262.48 458.726 262.704 458.726 262.938C458.726 263.172 458.64 263.396 458.486 263.561C458.332 263.727 458.124 263.82 457.906 263.82C457.784 263.822 457.664 263.795 457.553 263.741C457.442 263.687 457.343 263.607 457.265 263.506C457.186 263.406 457.13 263.289 457.099 263.162C457.068 263.035 457.063 262.903 457.086 262.774V262.938ZM454.626 262.938C454.626 262.704 454.713 262.48 454.866 262.314C455.02 262.149 455.229 262.056 455.446 262.056C455.664 262.056 455.872 262.149 456.026 262.314C456.18 262.48 456.266 262.704 456.266 262.938C456.266 263.172 456.18 263.396 456.026 263.561C455.872 263.727 455.664 263.82 455.446 263.82C455.324 263.822 455.204 263.795 455.093 263.741C454.982 263.687 454.883 263.607 454.805 263.506C454.726 263.406 454.67 263.289 454.639 263.162C454.608 263.035 454.604 262.903 454.626 262.774V262.938ZM452.147 262.938C452.143 262.759 452.189 262.582 452.279 262.431C452.369 262.28 452.499 262.161 452.652 262.09C452.805 262.018 452.974 261.997 453.138 262.03C453.302 262.062 453.453 262.147 453.572 262.272C453.692 262.397 453.774 262.558 453.808 262.734C453.841 262.909 453.826 263.092 453.763 263.258C453.7 263.424 453.593 263.566 453.454 263.666C453.316 263.766 453.153 263.82 452.986 263.82C452.864 263.821 452.743 263.794 452.631 263.74C452.519 263.686 452.42 263.607 452.34 263.507C452.26 263.407 452.202 263.29 452.168 263.163C452.135 263.037 452.128 262.904 452.147 262.774V262.938ZM449.687 262.938C449.687 262.704 449.774 262.48 449.927 262.314C450.081 262.149 450.29 262.056 450.507 262.056C450.725 262.056 450.933 262.149 451.087 262.314C451.241 262.48 451.327 262.704 451.327 262.938C451.327 263.172 451.241 263.396 451.087 263.561C450.933 263.727 450.725 263.82 450.507 263.82C450.385 263.822 450.265 263.795 450.154 263.741C450.043 263.687 449.945 263.607 449.866 263.506C449.788 263.406 449.731 263.289 449.7 263.162C449.669 263.035 449.665 262.903 449.687 262.774V262.938ZM447.227 262.938C447.227 262.704 447.314 262.48 447.468 262.314C447.621 262.149 447.83 262.056 448.047 262.056C448.265 262.056 448.473 262.149 448.627 262.314C448.781 262.48 448.867 262.704 448.867 262.938C448.867 263.172 448.781 263.396 448.627 263.561C448.473 263.727 448.265 263.82 448.047 263.82C447.926 263.822 447.805 263.795 447.694 263.741C447.583 263.687 447.485 263.607 447.406 263.506C447.328 263.406 447.271 263.289 447.24 263.162C447.209 263.035 447.205 262.903 447.227 262.774V262.938ZM451.041 273.089C451.041 272.915 451.089 272.745 451.179 272.6C451.27 272.455 451.398 272.342 451.547 272.275C451.697 272.208 451.862 272.191 452.021 272.225C452.18 272.259 452.326 272.343 452.441 272.466C452.556 272.589 452.634 272.746 452.665 272.917C452.697 273.089 452.681 273.266 452.619 273.427C452.557 273.588 452.452 273.726 452.317 273.823C452.182 273.92 452.023 273.971 451.861 273.971C451.748 273.959 451.638 273.922 451.538 273.862C451.439 273.801 451.352 273.719 451.284 273.621C451.216 273.522 451.167 273.409 451.142 273.29C451.117 273.17 451.115 273.046 451.137 272.925L451.041 273.089ZM448.581 273.089C448.581 272.856 448.668 272.631 448.821 272.466C448.975 272.301 449.184 272.208 449.401 272.208C449.619 272.208 449.827 272.301 449.981 272.466C450.135 272.631 450.221 272.856 450.221 273.089C450.221 273.323 450.135 273.548 449.981 273.713C449.827 273.878 449.619 273.971 449.401 273.971C449.288 273.959 449.178 273.922 449.078 273.862C448.979 273.801 448.892 273.719 448.824 273.621C448.756 273.522 448.707 273.409 448.682 273.29C448.657 273.17 448.655 273.046 448.677 272.925L448.581 273.089ZM446.121 273.089C446.121 272.856 446.208 272.631 446.362 272.466C446.515 272.301 446.724 272.208 446.941 272.208C447.159 272.208 447.367 272.301 447.521 272.466C447.675 272.631 447.761 272.856 447.761 273.089C447.761 273.323 447.675 273.548 447.521 273.713C447.367 273.878 447.159 273.971 446.941 273.971C446.828 273.959 446.718 273.922 446.618 273.862C446.519 273.801 446.432 273.719 446.364 273.621C446.296 273.522 446.248 273.409 446.222 273.29C446.197 273.17 446.195 273.046 446.217 272.925L446.121 273.089ZM443.661 273.089C443.661 272.856 443.748 272.631 443.902 272.466C444.055 272.301 444.264 272.208 444.481 272.208C444.699 272.208 444.907 272.301 445.061 272.466C445.215 272.631 445.301 272.856 445.301 273.089C445.301 273.323 445.215 273.548 445.061 273.713C444.907 273.878 444.699 273.971 444.481 273.971C444.368 273.959 444.258 273.922 444.158 273.862C444.059 273.801 443.972 273.719 443.904 273.621C443.836 273.522 443.788 273.409 443.762 273.29C443.737 273.17 443.735 273.046 443.757 272.925L443.661 273.089ZM441.182 273.089C441.179 272.909 441.225 272.732 441.316 272.581C441.407 272.429 441.537 272.31 441.692 272.24C441.846 272.169 442.016 272.149 442.18 272.183C442.345 272.217 442.496 272.304 442.615 272.431C442.733 272.559 442.813 272.721 442.845 272.898C442.877 273.075 442.859 273.258 442.793 273.424C442.727 273.59 442.617 273.73 442.476 273.828C442.335 273.925 442.17 273.975 442.002 273.971C441.889 273.959 441.779 273.922 441.679 273.862C441.58 273.801 441.493 273.719 441.425 273.621C441.357 273.522 441.309 273.409 441.283 273.29C441.258 273.17 441.256 273.046 441.278 272.925L441.182 273.089ZM438.723 273.089C438.723 272.856 438.809 272.631 438.963 272.466C439.117 272.301 439.325 272.208 439.543 272.208C439.76 272.208 439.969 272.301 440.122 272.466C440.276 272.631 440.363 272.856 440.363 273.089C440.363 273.323 440.276 273.548 440.122 273.713C439.969 273.878 439.76 273.971 439.543 273.971C439.436 273.949 439.334 273.905 439.243 273.84C439.153 273.775 439.075 273.692 439.015 273.594C438.954 273.497 438.913 273.388 438.892 273.273C438.871 273.158 438.872 273.04 438.894 272.925L438.723 273.089ZM451.041 280.37C451.041 280.136 451.128 279.912 451.281 279.746C451.435 279.581 451.644 279.488 451.861 279.488C452.079 279.488 452.287 279.581 452.441 279.746C452.595 279.912 452.681 280.136 452.681 280.37C452.681 280.604 452.595 280.828 452.441 280.994C452.287 281.159 452.079 281.252 451.861 281.252C451.644 281.252 451.435 281.159 451.281 280.994C451.128 280.828 451.041 280.604 451.041 280.37ZM448.581 280.37C448.581 280.136 448.668 279.912 448.821 279.746C448.975 279.581 449.184 279.488 449.401 279.488C449.619 279.488 449.827 279.581 449.981 279.746C450.135 279.912 450.221 280.136 450.221 280.37C450.216 280.602 450.128 280.824 449.976 280.988C449.823 281.152 449.617 281.247 449.401 281.252C449.288 281.24 449.178 281.202 449.078 281.142C448.979 281.082 448.892 281 448.824 280.901C448.756 280.803 448.707 280.69 448.682 280.57C448.657 280.451 448.655 280.326 448.677 280.206L448.581 280.37ZM446.121 280.37C446.121 280.136 446.208 279.912 446.362 279.746C446.515 279.581 446.724 279.488 446.941 279.488C447.159 279.488 447.367 279.581 447.521 279.746C447.675 279.912 447.761 280.136 447.761 280.37C447.756 280.602 447.669 280.824 447.516 280.988C447.363 281.152 447.157 281.247 446.941 281.252C446.828 281.24 446.718 281.202 446.618 281.142C446.519 281.082 446.432 281 446.364 280.901C446.296 280.803 446.248 280.69 446.222 280.57C446.197 280.451 446.195 280.326 446.217 280.206L446.121 280.37ZM443.661 280.37C443.661 280.136 443.748 279.912 443.902 279.746C444.055 279.581 444.264 279.488 444.481 279.488C444.699 279.488 444.907 279.581 445.061 279.746C445.215 279.912 445.301 280.136 445.301 280.37C445.297 280.602 445.209 280.824 445.056 280.988C444.903 281.152 444.697 281.247 444.481 281.252C444.368 281.24 444.258 281.202 444.158 281.142C444.059 281.082 443.972 281 443.904 280.901C443.836 280.803 443.788 280.69 443.762 280.57C443.737 280.451 443.735 280.326 443.757 280.206L443.661 280.37ZM441.182 280.37C441.213 280.157 441.313 279.962 441.465 279.821C441.617 279.681 441.811 279.603 442.012 279.603C442.213 279.603 442.407 279.681 442.559 279.821C442.711 279.962 442.811 280.157 442.842 280.37C442.811 280.583 442.711 280.778 442.559 280.919C442.407 281.059 442.213 281.137 442.012 281.137C441.811 281.137 441.617 281.059 441.465 280.919C441.313 280.778 441.213 280.583 441.182 280.37ZM438.723 280.37C438.723 280.136 438.809 279.912 438.963 279.746C439.117 279.581 439.325 279.488 439.543 279.488C439.76 279.488 439.969 279.581 440.122 279.746C440.276 279.912 440.363 280.136 440.363 280.37C440.363 280.604 440.276 280.828 440.122 280.994C439.969 281.159 439.76 281.252 439.543 281.252C439.329 281.202 439.142 281.066 439.021 280.87C438.9 280.675 438.855 280.437 438.894 280.206L438.723 280.37Z" fill="#263238"/>
<path d="M404.169 256.478H407.03C407.219 256.478 407.4 256.398 407.536 256.257C407.671 256.115 407.749 255.922 407.754 255.719C407.754 255.617 407.736 255.517 407.699 255.424C407.662 255.33 407.609 255.246 407.541 255.175C407.474 255.104 407.393 255.049 407.306 255.012C407.218 254.975 407.124 254.957 407.03 254.96H404.169C404.076 254.957 403.983 254.975 403.896 255.012C403.81 255.049 403.731 255.105 403.665 255.176C403.599 255.247 403.547 255.332 403.512 255.425C403.478 255.519 403.461 255.618 403.464 255.719C403.464 255.92 403.538 256.113 403.671 256.255C403.803 256.398 403.982 256.478 404.169 256.478ZM403.464 259.246C403.461 259.146 403.478 259.046 403.512 258.953C403.547 258.859 403.599 258.774 403.665 258.703C403.731 258.632 403.81 258.577 403.896 258.54C403.983 258.502 404.076 258.485 404.169 258.488H407.03C407.124 258.485 407.218 258.502 407.306 258.539C407.393 258.576 407.474 258.632 407.541 258.702C407.609 258.773 407.662 258.858 407.699 258.951C407.736 259.045 407.754 259.145 407.754 259.246C407.749 259.449 407.671 259.642 407.536 259.784C407.4 259.926 407.219 260.005 407.03 260.005H404.169C404.077 260.005 403.985 259.985 403.899 259.947C403.814 259.909 403.736 259.853 403.671 259.783C403.605 259.712 403.553 259.629 403.518 259.537C403.482 259.445 403.464 259.346 403.464 259.246ZM403.464 262.774C403.464 262.573 403.538 262.38 403.671 262.237C403.803 262.095 403.982 262.015 404.169 262.015H407.03C407.219 262.015 407.4 262.094 407.536 262.236C407.671 262.378 407.749 262.571 407.754 262.774C407.754 262.875 407.736 262.976 407.699 263.069C407.662 263.162 407.609 263.247 407.541 263.318C407.474 263.388 407.393 263.444 407.306 263.481C407.218 263.518 407.124 263.535 407.03 263.533H404.169C404.076 263.535 403.983 263.518 403.896 263.481C403.81 263.443 403.731 263.388 403.665 263.317C403.599 263.246 403.547 263.161 403.512 263.067C403.478 262.974 403.461 262.874 403.464 262.774ZM403.464 266.301C403.464 266.1 403.538 265.907 403.671 265.765C403.803 265.622 403.982 265.542 404.169 265.542H407.03C407.219 265.542 407.4 265.622 407.536 265.763C407.671 265.905 407.749 266.098 407.754 266.301C407.754 266.403 407.736 266.503 407.699 266.596C407.662 266.69 407.609 266.774 407.541 266.845C407.474 266.916 407.393 266.971 407.306 267.008C407.218 267.045 407.124 267.063 407.03 267.06H404.169C404.076 267.063 403.983 267.045 403.896 267.008C403.81 266.971 403.731 266.915 403.665 266.844C403.599 266.773 403.547 266.688 403.512 266.595C403.478 266.502 403.461 266.402 403.464 266.301ZM403.464 269.829C403.464 269.627 403.538 269.434 403.671 269.292C403.803 269.15 403.982 269.07 404.169 269.07H407.03C407.219 269.07 407.4 269.149 407.536 269.291C407.671 269.433 407.749 269.626 407.754 269.829C407.754 269.93 407.736 270.03 407.699 270.124C407.662 270.217 407.609 270.302 407.541 270.373C407.474 270.443 407.393 270.499 407.306 270.536C407.218 270.573 407.124 270.59 407.03 270.587H404.169C404.076 270.59 403.983 270.573 403.896 270.535C403.81 270.498 403.731 270.443 403.665 270.372C403.599 270.3 403.547 270.216 403.512 270.122C403.478 270.029 403.461 269.929 403.464 269.829ZM403.464 273.356C403.464 273.155 403.538 272.962 403.671 272.82C403.803 272.677 403.982 272.597 404.169 272.597H407.03C407.219 272.597 407.4 272.676 407.536 272.818C407.671 272.96 407.749 273.153 407.754 273.356C407.754 273.457 407.736 273.558 407.699 273.651C407.662 273.745 407.609 273.829 407.541 273.9C407.474 273.971 407.393 274.026 407.306 274.063C407.218 274.1 407.124 274.118 407.03 274.115H404.169C404.076 274.118 403.983 274.1 403.896 274.063C403.81 274.026 403.731 273.97 403.665 273.899C403.599 273.828 403.547 273.743 403.512 273.65C403.478 273.556 403.461 273.457 403.464 273.356ZM403.464 276.884C403.464 276.682 403.538 276.489 403.671 276.347C403.803 276.205 403.982 276.125 404.169 276.125H407.03C407.133 276.106 407.24 276.113 407.341 276.143C407.442 276.173 407.536 276.227 407.616 276.3C407.696 276.373 407.76 276.464 407.805 276.567C407.849 276.669 407.872 276.781 407.872 276.894C407.872 277.007 407.849 277.118 407.805 277.221C407.76 277.324 407.696 277.415 407.616 277.488C407.536 277.561 407.442 277.614 407.341 277.645C407.24 277.675 407.133 277.681 407.03 277.663H404.169C404.075 277.663 403.982 277.643 403.895 277.603C403.808 277.564 403.729 277.506 403.664 277.433C403.598 277.361 403.546 277.275 403.512 277.18C403.478 277.086 403.461 276.985 403.464 276.884ZM403.464 280.411C403.464 280.21 403.538 280.017 403.671 279.874C403.803 279.732 403.982 279.652 404.169 279.652H407.03C407.133 279.634 407.24 279.64 407.341 279.67C407.442 279.701 407.536 279.754 407.616 279.827C407.696 279.9 407.76 279.991 407.805 280.094C407.849 280.197 407.872 280.308 407.872 280.421C407.872 280.534 407.849 280.646 407.805 280.748C407.76 280.851 407.696 280.942 407.616 281.015C407.536 281.088 407.442 281.142 407.341 281.172C407.24 281.202 407.133 281.209 407.03 281.19H404.169C404.075 281.19 403.982 281.17 403.895 281.131C403.808 281.091 403.729 281.034 403.664 280.961C403.598 280.888 403.546 280.802 403.512 280.708C403.478 280.613 403.461 280.512 403.464 280.411ZM392.709 255.801C392.709 255.7 392.728 255.599 392.764 255.506C392.801 255.412 392.855 255.328 392.922 255.257C392.99 255.186 393.07 255.131 393.158 255.094C393.245 255.057 393.339 255.039 393.434 255.042H401.061C401.248 255.042 401.428 255.122 401.56 255.264C401.692 255.407 401.767 255.6 401.767 255.801C401.762 256.001 401.686 256.191 401.555 256.332C401.423 256.473 401.247 256.555 401.061 256.56H393.434C393.333 256.56 393.234 256.538 393.142 256.495C393.05 256.452 392.968 256.389 392.9 256.31C392.832 256.231 392.78 256.138 392.747 256.036C392.714 255.934 392.701 255.826 392.709 255.719V255.801ZM392.709 259.328C392.709 259.227 392.728 259.127 392.764 259.033C392.801 258.94 392.855 258.855 392.922 258.784C392.99 258.714 393.07 258.658 393.158 258.621C393.245 258.584 393.339 258.567 393.434 258.57H401.061C401.248 258.57 401.428 258.65 401.56 258.792C401.692 258.934 401.767 259.127 401.767 259.328C401.762 259.528 401.686 259.718 401.555 259.859C401.423 260 401.247 260.082 401.061 260.087H393.434C393.333 260.088 393.234 260.066 393.142 260.023C393.05 259.98 392.968 259.917 392.9 259.838C392.832 259.759 392.78 259.665 392.747 259.564C392.714 259.462 392.701 259.354 392.709 259.246V259.328ZM392.709 262.856C392.714 262.653 392.792 262.46 392.928 262.318C393.063 262.176 393.245 262.097 393.434 262.097H401.061C401.247 262.102 401.423 262.184 401.555 262.325C401.686 262.466 401.762 262.656 401.767 262.856C401.767 263.057 401.692 263.25 401.56 263.392C401.428 263.535 401.248 263.615 401.061 263.615H393.434C393.333 263.618 393.232 263.598 393.139 263.557C393.045 263.515 392.961 263.452 392.893 263.372C392.824 263.292 392.772 263.198 392.74 263.094C392.709 262.991 392.698 262.882 392.709 262.774V262.856ZM392.709 266.383C392.714 266.18 392.792 265.987 392.928 265.845C393.063 265.704 393.245 265.624 393.434 265.624H401.061C401.247 265.63 401.423 265.711 401.555 265.852C401.686 265.994 401.762 266.184 401.767 266.383C401.767 266.585 401.692 266.778 401.56 266.92C401.428 267.062 401.248 267.142 401.061 267.142H393.434C393.333 267.146 393.232 267.126 393.139 267.084C393.045 267.042 392.961 266.979 392.893 266.899C392.824 266.82 392.772 266.725 392.74 266.622C392.709 266.519 392.698 266.409 392.709 266.301V266.383ZM392.709 269.911C392.714 269.708 392.792 269.515 392.928 269.373C393.063 269.231 393.245 269.152 393.434 269.152H401.061C401.247 269.157 401.423 269.239 401.555 269.38C401.686 269.521 401.762 269.711 401.767 269.911C401.767 270.112 401.692 270.305 401.56 270.447C401.428 270.59 401.248 270.669 401.061 270.669H393.434C393.333 270.673 393.232 270.653 393.139 270.611C393.045 270.57 392.961 270.507 392.893 270.427C392.824 270.347 392.772 270.252 392.74 270.149C392.709 270.046 392.698 269.937 392.709 269.829V269.911ZM383.689 273.438C383.694 273.239 383.77 273.048 383.901 272.907C384.032 272.766 384.209 272.685 384.395 272.679H392.022C392.208 272.685 392.385 272.766 392.516 272.907C392.647 273.048 392.723 273.239 392.728 273.438C392.728 273.639 392.654 273.832 392.521 273.975C392.389 274.117 392.21 274.197 392.022 274.197H384.395C384.288 274.213 384.179 274.203 384.076 274.167C383.973 274.131 383.879 274.07 383.802 273.989C383.724 273.908 383.665 273.808 383.629 273.698C383.593 273.589 383.581 273.472 383.594 273.356L383.689 273.438ZM383.689 276.966C383.694 276.766 383.77 276.576 383.901 276.435C384.032 276.294 384.209 276.212 384.395 276.207H392.022C392.192 276.237 392.346 276.33 392.457 276.471C392.569 276.612 392.63 276.791 392.63 276.976C392.63 277.161 392.569 277.339 392.457 277.48C392.346 277.621 392.192 277.715 392.022 277.745H384.395C384.287 277.758 384.177 277.745 384.074 277.706C383.972 277.667 383.878 277.604 383.802 277.521C383.725 277.439 383.666 277.338 383.63 277.228C383.594 277.118 383.582 277 383.594 276.884L383.689 276.966ZM383.689 280.493C383.694 280.293 383.77 280.103 383.901 279.962C384.032 279.821 384.209 279.739 384.395 279.734H392.022C392.192 279.764 392.346 279.858 392.457 279.999C392.569 280.14 392.63 280.318 392.63 280.503C392.63 280.688 392.569 280.867 392.457 281.008C392.346 281.149 392.192 281.242 392.022 281.272H384.395C384.287 281.285 384.177 281.272 384.074 281.233C383.972 281.195 383.878 281.132 383.802 281.049C383.725 280.966 383.666 280.866 383.63 280.755C383.594 280.645 383.582 280.527 383.594 280.411L383.689 280.493ZM389.41 255.883C389.41 255.649 389.496 255.425 389.65 255.259C389.804 255.094 390.012 255.001 390.23 255.001C390.447 255.001 390.656 255.094 390.81 255.259C390.963 255.425 391.05 255.649 391.05 255.883C391.05 256.117 390.963 256.341 390.81 256.507C390.656 256.672 390.447 256.765 390.23 256.765C390.1 256.784 389.969 256.769 389.845 256.723C389.722 256.676 389.611 256.598 389.522 256.496C389.432 256.393 389.367 256.269 389.331 256.134C389.295 255.999 389.289 255.857 389.315 255.719L389.41 255.883ZM386.931 255.883C386.931 255.649 387.017 255.425 387.171 255.259C387.325 255.094 387.533 255.001 387.751 255.001C387.968 255.001 388.177 255.094 388.331 255.259C388.485 255.425 388.571 255.649 388.571 255.883C388.571 256.117 388.485 256.341 388.331 256.507C388.177 256.672 387.968 256.765 387.751 256.765C387.629 256.767 387.508 256.74 387.397 256.686C387.287 256.632 387.188 256.552 387.11 256.452C387.031 256.351 386.974 256.234 386.943 256.107C386.913 255.98 386.908 255.848 386.931 255.719V255.883ZM384.471 255.883C384.471 255.649 384.557 255.425 384.711 255.259C384.865 255.094 385.074 255.001 385.291 255.001C385.509 255.001 385.717 255.094 385.871 255.259C386.025 255.425 386.111 255.649 386.111 255.883C386.111 256.117 386.025 256.341 385.871 256.507C385.717 256.672 385.509 256.765 385.291 256.765C385.169 256.767 385.048 256.74 384.938 256.686C384.827 256.632 384.728 256.552 384.65 256.452C384.571 256.351 384.514 256.234 384.484 256.107C384.453 255.98 384.448 255.848 384.471 255.719V255.883ZM382.011 255.883C382.011 255.649 382.097 255.425 382.251 255.259C382.405 255.094 382.614 255.001 382.831 255.001C383.049 255.001 383.257 255.094 383.411 255.259C383.565 255.425 383.651 255.649 383.651 255.883C383.651 256.117 383.565 256.341 383.411 256.507C383.257 256.672 383.049 256.765 382.831 256.765C382.709 256.767 382.589 256.74 382.478 256.686C382.367 256.632 382.268 256.552 382.19 256.452C382.111 256.351 382.055 256.234 382.024 256.107C381.993 255.98 381.988 255.848 382.011 255.719V255.883ZM379.551 255.883C379.551 255.649 379.638 255.425 379.791 255.259C379.945 255.094 380.154 255.001 380.371 255.001C380.589 255.001 380.797 255.094 380.951 255.259C381.105 255.425 381.191 255.649 381.191 255.883C381.191 256.117 381.105 256.341 380.951 256.507C380.797 256.672 380.589 256.765 380.371 256.765C380.249 256.767 380.129 256.74 380.018 256.686C379.907 256.632 379.808 256.552 379.73 256.452C379.651 256.351 379.595 256.234 379.564 256.107C379.533 255.98 379.529 255.848 379.551 255.719V255.883ZM377.091 255.883C377.091 255.709 377.139 255.538 377.23 255.393C377.32 255.248 377.448 255.135 377.597 255.068C377.747 255.001 377.912 254.984 378.071 255.018C378.23 255.052 378.376 255.136 378.491 255.259C378.606 255.383 378.684 255.54 378.715 255.711C378.747 255.882 378.731 256.059 378.669 256.22C378.607 256.382 378.502 256.519 378.367 256.616C378.232 256.713 378.073 256.765 377.911 256.765C377.789 256.767 377.669 256.74 377.558 256.686C377.447 256.632 377.349 256.552 377.27 256.452C377.192 256.351 377.135 256.234 377.104 256.107C377.073 255.98 377.069 255.848 377.091 255.719V255.883ZM389.315 262.774C389.315 262.54 389.401 262.316 389.555 262.15C389.709 261.985 389.917 261.892 390.135 261.892C390.352 261.892 390.561 261.985 390.714 262.15C390.868 262.316 390.955 262.54 390.955 262.774C390.955 263.008 390.868 263.232 390.714 263.397C390.561 263.563 390.352 263.656 390.135 263.656C389.917 263.656 389.709 263.563 389.555 263.397C389.401 263.232 389.315 263.008 389.315 262.774ZM386.836 262.774C386.836 262.54 386.922 262.316 387.076 262.15C387.23 261.985 387.438 261.892 387.656 261.892C387.873 261.892 388.082 261.985 388.235 262.15C388.389 262.316 388.476 262.54 388.476 262.774C388.476 263.008 388.389 263.232 388.235 263.397C388.082 263.563 387.873 263.656 387.656 263.656C387.455 263.63 387.27 263.526 387.137 263.364C387.003 263.201 386.93 262.991 386.931 262.774H386.836ZM384.376 262.774C384.376 262.54 384.462 262.316 384.616 262.15C384.77 261.985 384.978 261.892 385.196 261.892C385.413 261.892 385.622 261.985 385.775 262.15C385.929 262.316 386.016 262.54 386.016 262.774C386.016 263.008 385.929 263.232 385.775 263.397C385.622 263.563 385.413 263.656 385.196 263.656C384.995 263.63 384.81 263.526 384.677 263.364C384.543 263.201 384.47 262.991 384.471 262.774H384.376ZM381.916 262.774C381.916 262.54 382.002 262.316 382.156 262.15C382.31 261.985 382.518 261.892 382.736 261.892C382.953 261.892 383.162 261.985 383.316 262.15C383.469 262.316 383.556 262.54 383.556 262.774C383.556 263.008 383.469 263.232 383.316 263.397C383.162 263.563 382.953 263.656 382.736 263.656C382.535 263.63 382.35 263.526 382.217 263.364C382.083 263.201 382.01 262.991 382.011 262.774H381.916ZM379.456 262.774C379.456 262.54 379.542 262.316 379.696 262.15C379.85 261.985 380.058 261.892 380.276 261.892C380.493 261.892 380.702 261.985 380.856 262.15C381.009 262.316 381.096 262.54 381.096 262.774C381.096 263.008 381.009 263.232 380.856 263.397C380.702 263.563 380.493 263.656 380.276 263.656C380.075 263.63 379.89 263.526 379.757 263.364C379.623 263.201 379.55 262.991 379.551 262.774H379.456ZM376.996 262.774C376.996 262.599 377.044 262.429 377.134 262.284C377.224 262.139 377.352 262.026 377.502 261.959C377.652 261.892 377.817 261.875 377.976 261.909C378.135 261.943 378.281 262.027 378.396 262.15C378.51 262.274 378.588 262.431 378.62 262.602C378.652 262.773 378.636 262.95 378.574 263.111C378.511 263.272 378.406 263.41 378.271 263.507C378.137 263.604 377.978 263.656 377.816 263.656C377.615 263.63 377.431 263.526 377.297 263.364C377.163 263.201 377.09 262.991 377.091 262.774H376.996ZM380.905 272.925C380.905 272.692 380.992 272.467 381.145 272.302C381.299 272.136 381.508 272.044 381.725 272.044C381.943 272.044 382.151 272.136 382.305 272.302C382.459 272.467 382.545 272.692 382.545 272.925C382.545 273.159 382.459 273.384 382.305 273.549C382.151 273.714 381.943 273.807 381.725 273.807C381.525 273.782 381.34 273.678 381.206 273.515C381.072 273.353 380.999 273.143 381 272.925H380.905ZM378.426 272.925C378.422 272.746 378.468 272.57 378.558 272.419C378.648 272.268 378.778 272.149 378.931 272.077C379.084 272.006 379.253 271.985 379.417 272.017C379.581 272.05 379.732 272.134 379.851 272.26C379.971 272.385 380.052 272.546 380.086 272.721C380.12 272.897 380.105 273.079 380.042 273.245C379.979 273.411 379.872 273.554 379.733 273.654C379.595 273.754 379.432 273.807 379.265 273.807C379.063 273.782 378.876 273.679 378.739 273.517C378.602 273.355 378.525 273.144 378.521 272.925H378.426ZM375.966 272.925C375.966 272.692 376.053 272.467 376.206 272.302C376.36 272.136 376.569 272.044 376.786 272.044C377.004 272.044 377.212 272.136 377.366 272.302C377.52 272.467 377.606 272.692 377.606 272.925C377.606 273.159 377.52 273.384 377.366 273.549C377.212 273.714 377.004 273.807 376.786 273.807C376.569 273.807 376.36 273.714 376.206 273.549C376.053 273.384 375.966 273.159 375.966 272.925ZM373.506 272.925C373.506 272.692 373.593 272.467 373.746 272.302C373.9 272.136 374.109 272.044 374.326 272.044C374.544 272.044 374.752 272.136 374.906 272.302C375.06 272.467 375.146 272.692 375.146 272.925C375.146 273.159 375.06 273.384 374.906 273.549C374.752 273.714 374.544 273.807 374.326 273.807C374.126 273.782 373.941 273.678 373.807 273.515C373.673 273.353 373.6 273.143 373.602 272.925H373.506ZM371.046 272.925C371.046 272.692 371.133 272.467 371.287 272.302C371.44 272.136 371.649 272.044 371.866 272.044C372.084 272.044 372.292 272.136 372.446 272.302C372.6 272.467 372.686 272.692 372.686 272.925C372.686 273.159 372.6 273.384 372.446 273.549C372.292 273.714 372.084 273.807 371.866 273.807C371.666 273.782 371.481 273.678 371.347 273.515C371.214 273.353 371.14 273.143 371.142 272.925H371.046ZM368.586 272.925C368.586 272.692 368.673 272.467 368.827 272.302C368.98 272.136 369.189 272.044 369.406 272.044C369.624 272.044 369.832 272.136 369.986 272.302C370.14 272.467 370.226 272.692 370.226 272.925C370.226 273.159 370.14 273.384 369.986 273.549C369.832 273.714 369.624 273.807 369.406 273.807C369.206 273.782 369.021 273.678 368.887 273.515C368.754 273.353 368.68 273.143 368.682 272.925H368.586ZM380.905 280.206C380.905 279.972 380.992 279.748 381.145 279.582C381.299 279.417 381.508 279.324 381.725 279.324C381.943 279.324 382.151 279.417 382.305 279.582C382.459 279.748 382.545 279.972 382.545 280.206C382.54 280.438 382.452 280.659 382.3 280.824C382.147 280.988 381.941 281.083 381.725 281.088C381.525 281.062 381.34 280.959 381.206 280.796C381.072 280.633 380.999 280.423 381 280.206H380.905ZM378.426 280.206C378.456 279.993 378.557 279.798 378.709 279.657C378.861 279.517 379.055 279.439 379.256 279.439C379.456 279.439 379.65 279.517 379.803 279.657C379.955 279.798 380.055 279.993 380.085 280.206C380.055 280.419 379.955 280.614 379.803 280.755C379.65 280.895 379.456 280.973 379.256 280.973C379.055 280.973 378.861 280.895 378.709 280.755C378.557 280.614 378.456 280.419 378.426 280.206ZM375.966 280.206C375.966 280.09 375.987 279.975 376.029 279.868C376.07 279.761 376.13 279.664 376.206 279.582C376.283 279.5 376.373 279.435 376.472 279.391C376.572 279.347 376.679 279.324 376.786 279.324C377.004 279.324 377.212 279.417 377.366 279.582C377.52 279.748 377.606 279.972 377.606 280.206C377.606 280.322 377.585 280.436 377.544 280.543C377.503 280.65 377.442 280.748 377.366 280.829C377.29 280.911 377.199 280.976 377.1 281.021C377 281.065 376.894 281.088 376.786 281.088C376.57 281.083 376.364 280.988 376.212 280.824C376.059 280.659 375.971 280.438 375.966 280.206ZM373.506 280.206C373.506 279.972 373.593 279.748 373.746 279.582C373.9 279.417 374.109 279.324 374.326 279.324C374.544 279.324 374.752 279.417 374.906 279.582C375.06 279.748 375.146 279.972 375.146 280.206C375.146 280.322 375.125 280.436 375.084 280.543C375.043 280.65 374.982 280.748 374.906 280.829C374.83 280.911 374.74 280.976 374.64 281.021C374.541 281.065 374.434 281.088 374.326 281.088C374.127 281.058 373.945 280.953 373.812 280.791C373.679 280.63 373.604 280.422 373.602 280.206H373.506ZM371.046 280.206C371.046 279.972 371.133 279.748 371.287 279.582C371.44 279.417 371.649 279.324 371.866 279.324C372.084 279.324 372.292 279.417 372.446 279.582C372.6 279.748 372.686 279.972 372.686 280.206C372.686 280.322 372.665 280.436 372.624 280.543C372.583 280.65 372.522 280.748 372.446 280.829C372.37 280.911 372.28 280.976 372.18 281.021C372.081 281.065 371.974 281.088 371.866 281.088C371.667 281.058 371.485 280.953 371.352 280.791C371.219 280.63 371.144 280.422 371.142 280.206H371.046ZM368.586 280.206C368.586 279.972 368.673 279.748 368.827 279.582C368.98 279.417 369.189 279.324 369.406 279.324C369.624 279.324 369.832 279.417 369.986 279.582C370.14 279.748 370.226 279.972 370.226 280.206C370.226 280.322 370.205 280.436 370.164 280.543C370.123 280.65 370.062 280.748 369.986 280.829C369.91 280.911 369.82 280.976 369.72 281.021C369.621 281.065 369.514 281.088 369.406 281.088C369.208 281.058 369.025 280.953 368.892 280.791C368.759 280.63 368.685 280.422 368.682 280.206H368.586Z" fill="#263238"/>
<path d="M502.337 277.314C502.337 277.314 514.293 247.29 524.781 247.29C535.269 247.29 534.755 272.495 528.271 285.907C521.788 299.32 507.81 304.672 503.825 296.633" fill="white"/>
<mask id="mask5_72_809" style="mask-type:luminance" maskUnits="userSpaceOnUse" x="502" y="247" width="31" height="54">
<path d="M502.337 277.314C502.337 277.314 514.293 247.29 524.781 247.29C535.269 247.29 534.755 272.495 528.271 285.907C521.788 299.32 507.81 304.672 503.825 296.633" fill="white"/>
</mask>
<g mask="url(#mask5_72_809)">
<path d="M502.337 277.314C502.337 277.314 514.293 247.29 524.781 247.29C535.269 247.29 534.755 272.495 528.271 285.907C521.788 299.32 507.81 304.672 503.825 296.633" fill="#C6FF00"/>
<path opacity="0.5" d="M502.337 277.314C502.337 277.314 514.293 247.29 524.781 247.29C535.269 247.29 534.755 272.495 528.271 285.907C521.788 299.32 507.81 304.672 503.825 296.633" fill="white"/>
</g>
<path d="M502.337 277.314C502.337 277.314 514.293 247.29 524.781 247.29C535.269 247.29 534.755 272.495 528.271 285.907C521.788 299.32 507.81 304.672 503.825 296.633" stroke="#263238" stroke-linecap="round" stroke-linejoin="round"/>
<path d="M528.252 265.604C528.252 265.604 529.778 252.54 524 254.837C518.222 257.134 511.548 277.704 511.548 277.704C511.548 277.704 516.41 272.146 515.8 277.376C515.723 278.766 515.194 280.083 514.305 281.096C513.416 282.108 512.224 282.752 510.937 282.913" stroke="#263238" stroke-linecap="round" stroke-linejoin="round"/>
<path d="M102.287 370.463H338.705L379.055 544.99H142.656L102.287 370.463Z" fill="#263238" stroke="#263238" stroke-linecap="round" stroke-linejoin="round"/>
<path d="M145.135 544.99H497.684V557.397H145.135V544.99Z" fill="#263238" stroke="#263238" stroke-linecap="round" stroke-linejoin="round"/>
<path d="M142.637 544.99H379.055V557.397H142.637V544.99Z" fill="#C6FF00" stroke="#263238" stroke-linecap="round" stroke-linejoin="round"/>
<path d="M99.6741 370.463H336.093L376.443 544.99H140.043L99.6741 370.463Z" fill="#C6FF00" stroke="#263238" stroke-linecap="round" stroke-linejoin="round"/>
<path d="M239.413 496.98C220.793 496.98 205.698 480.902 205.698 461.069C205.698 441.237 220.793 425.159 239.413 425.159C258.032 425.159 273.127 441.237 273.127 461.069C273.127 480.902 258.032 496.98 239.413 496.98Z" fill="#263238"/>
<path d="M266.815 466.586C267.168 466.415 267.486 466.169 267.748 465.862C268.01 465.556 268.212 465.195 268.34 464.802C268.654 463.959 268.654 463.019 268.34 462.177C268.17 461.713 267.912 461.292 267.584 460.939C267.256 460.586 266.865 460.31 266.433 460.126L252.151 453.974C251.674 453.748 251.178 453.973 250.644 454.65C250.17 455.22 249.883 455.94 249.824 456.701C249.812 457.067 249.897 457.429 250.069 457.745C250.241 458.061 250.494 458.318 250.797 458.485L262.772 463.489L250.759 468.678C250.506 468.861 250.303 469.113 250.172 469.409C250.041 469.705 249.987 470.033 250.015 470.36C250.038 471.104 250.278 471.821 250.701 472.411C251.159 473.067 251.617 473.292 252.093 473.087L266.815 466.586Z" fill="white"/>
<path d="M244.523 475.179C244.72 475.01 244.878 474.795 244.984 474.549C245.09 474.303 245.141 474.035 245.133 473.764C245.048 473.025 244.895 472.297 244.676 471.59L236.743 446.98C236.247 445.134 235.542 444.211 234.626 444.211C234.123 444.203 233.635 444.393 233.253 444.745C233.067 444.946 232.922 445.187 232.827 445.451C232.731 445.716 232.688 445.999 232.7 446.283C232.749 446.986 232.897 447.678 233.139 448.334L241.434 474.379C241.527 474.793 241.751 475.158 242.068 475.413C242.385 475.668 242.774 475.795 243.169 475.774C243.672 475.757 244.153 475.546 244.523 475.179Z" fill="white"/>
<path d="M228.944 472.513C229.367 471.924 229.607 471.206 229.63 470.462C229.658 470.136 229.603 469.808 229.473 469.512C229.342 469.216 229.139 468.963 228.886 468.781L216.873 463.592L228.848 458.588C229.151 458.421 229.404 458.164 229.576 457.848C229.748 457.532 229.833 457.17 229.821 456.804C229.762 456.042 229.475 455.322 229.001 454.753C228.467 454.076 227.971 453.85 227.494 454.076L213.212 460.229C212.523 460.522 211.937 461.038 211.533 461.705C211.17 462.272 210.977 462.945 210.981 463.633C211.004 464.276 211.174 464.903 211.476 465.458C211.756 466.008 212.199 466.441 212.735 466.689L227.552 473.313C228.028 473.395 228.486 473.169 228.944 472.513Z" fill="white"/>
<path d="M11.7465 554.67H777.047V566.975H11.7465V554.67Z" fill="white" stroke="#263238" stroke-linecap="round" stroke-linejoin="round"/>
</g>
<defs>
<clipPath id="clip0_72_809">
<rect width="778" height="568" fill="white" transform="matrix(-1 0 0 1 778 0)"/>
</clipPath>
</defs>
</svg>
