<svg width="39" height="40" viewBox="0 0 39 40" fill="none" xmlns="http://www.w3.org/2000/svg">
<path d="M38.9781 9.03335C38.9925 9.08653 39 9.14138 39 9.19653V17.7674C39 17.9914 38.8797 18.1982 38.6842 18.3096L31.4514 22.4515V30.6606C31.4514 30.7705 31.4224 30.8784 31.3673 30.9736C31.3121 31.0687 31.2328 31.1478 31.1372 31.2029L16.0387 39.8473C16.0042 39.8667 15.9665 39.8791 15.9288 39.8926C15.9146 39.8971 15.9013 39.9058 15.8864 39.9097C15.7809 39.9374 15.6699 39.9374 15.5644 39.9097C15.547 39.9052 15.5313 39.8956 15.5148 39.8894C15.4803 39.8768 15.4442 39.8659 15.4112 39.8473L0.315809 31.2027C0.219884 31.148 0.140178 31.069 0.0847306 30.9738C0.0292836 30.8787 5.71842e-05 30.7706 0 30.6606L0 4.94789C0 4.89153 0.00792187 4.83683 0.0219375 4.7838C0.0266602 4.76577 0.0376289 4.74941 0.0440273 4.73138C0.0557578 4.69865 0.0668789 4.66502 0.0840937 4.63456C0.0958242 4.61426 0.113039 4.59789 0.127207 4.57911C0.145336 4.55411 0.161789 4.52835 0.182965 4.50638C0.201094 4.4885 0.224707 4.47517 0.245121 4.45956C0.267973 4.44077 0.288234 4.42047 0.314133 4.40562H0.314895L7.86292 0.0835004C7.9585 0.0287931 8.06685 0 8.17713 0C8.28741 0 8.39575 0.0287931 8.49134 0.0835004L16.0394 4.40562H16.0409C16.066 4.42138 16.0873 4.44077 16.11 4.4588C16.1305 4.47441 16.1533 4.4885 16.1713 4.50577C16.1934 4.52835 16.2091 4.55426 16.2278 4.57911C16.2412 4.59789 16.2593 4.61426 16.2703 4.63456C16.2883 4.66577 16.2985 4.69865 16.3111 4.73153C16.3174 4.74941 16.3284 4.76577 16.3331 4.78456C16.3476 4.83774 16.355 4.89274 16.3552 4.94789V21.0076L22.6448 17.4056V9.19577C22.6448 9.14123 22.6528 9.08562 22.6669 9.03335C22.6724 9.01456 22.6826 8.9982 22.6889 8.98032C22.7015 8.94744 22.7125 8.91365 22.7297 8.88335C22.7414 8.86305 22.7586 8.84668 22.7722 8.82789C22.7909 8.80289 22.8066 8.77714 22.8286 8.75517C22.8468 8.73729 22.8695 8.72395 22.89 8.70835C22.9136 8.68956 22.934 8.66926 22.9591 8.65441H22.9599L30.5087 4.33229C30.6042 4.27751 30.7126 4.24867 30.8229 4.24867C30.9332 4.24867 31.0415 4.27751 31.1371 4.33229L38.6851 8.65441C38.7118 8.67002 38.7322 8.68956 38.7558 8.70744C38.7753 8.7232 38.7981 8.73729 38.8163 8.75441C38.8382 8.77714 38.8539 8.80289 38.8726 8.82789C38.887 8.84668 38.9042 8.86305 38.9153 8.88335C38.9333 8.91365 38.9435 8.94744 38.956 8.98032C38.9631 8.9982 38.9733 9.01456 38.9781 9.03335ZM37.7418 17.4058V10.2785L35.1003 11.7908L31.4512 13.8805V21.0077L37.7426 17.4058H37.7418ZM30.1938 30.299V23.1667L26.6042 25.2056L16.3544 31.0238V38.2229L30.1938 30.299ZM1.25821 6.02971V30.299L15.096 38.2223V31.0246L7.86703 26.9555L7.86475 26.954L7.8617 26.9524C7.83732 26.9383 7.81676 26.918 7.79406 26.9009C7.77425 26.8852 7.75155 26.8727 7.73434 26.8555L7.73282 26.8532C7.7124 26.8337 7.69823 26.8094 7.68102 26.7876C7.66518 26.7664 7.64644 26.7485 7.63379 26.7267L7.63303 26.7243C7.61886 26.7009 7.61018 26.6727 7.59997 26.6462C7.58977 26.6227 7.57651 26.6008 7.57011 26.5759V26.5752C7.56234 26.5455 7.56082 26.5141 7.55762 26.4837C7.55457 26.4603 7.54818 26.4368 7.54818 26.4133V9.63183L3.8997 7.54123L1.25821 6.03062V6.02971ZM8.17797 1.34744L1.88891 4.94789L8.17644 8.5482L14.4646 4.94699L8.17644 1.34744H8.17797ZM11.4485 23.8168L15.0968 21.728V6.02971L12.4556 7.54214L8.80623 9.63168V25.3299L11.4485 23.8168ZM30.8228 5.59623L24.5347 9.19653L30.8228 12.797L37.1102 9.19577L30.8228 5.59623ZM30.1936 13.8805L26.5445 11.7908L23.9032 10.2785V17.4058L27.5515 19.4947L30.1938 21.0077L30.1936 13.8805ZM15.7245 29.942L24.9478 24.705L29.5583 22.088L23.2748 18.49L16.0401 22.6324L9.44638 26.4079L15.7245 29.942Z" fill="#FF2D20"/>
</svg>
