<svg width="128" height="128" viewBox="0 0 128 128" fill="none" xmlns="http://www.w3.org/2000/svg">
<g clip-path="url(#clip0_106_6)">
<path d="M0 0H128V128H0V0Z" fill="#F7DF1E"/>
<path d="M33.656 106.966L43.451 101.038C45.341 104.388 47.06 107.223 51.1835 107.223C55.136 107.223 57.6285 105.677 57.6285 99.6634V58.7644H69.657V99.8334C69.657 112.292 62.354 117.963 51.699 117.963C42.0765 117.963 36.491 112.979 33.6555 106.965M76.1905 105.677L85.9845 100.006C88.563 104.217 91.914 107.31 97.842 107.31C102.826 107.31 106.004 104.818 106.004 101.381C106.004 97.2569 102.739 95.7959 97.2405 93.3909L94.234 92.1009C85.5555 88.4074 79.799 83.7674 79.799 73.9724C79.799 64.9504 86.6725 58.0764 97.413 58.0764C105.06 58.0764 110.559 60.7404 114.511 67.6999L105.145 73.7149C103.082 70.0204 100.849 68.5599 97.4125 68.5599C93.8895 68.5599 91.6555 70.7939 91.6555 73.7149C91.6555 77.3234 93.8895 78.7849 99.0445 81.0189L102.051 82.3074C112.276 86.6899 118.033 91.1574 118.033 101.209C118.033 112.036 109.527 117.964 98.0995 117.964C86.93 117.964 79.7125 112.637 76.19 105.677" fill="black"/>
</g>
<defs>
<clipPath id="clip0_106_6">
<rect width="128" height="128" fill="white"/>
</clipPath>
</defs>
</svg>
