<svg width="39" height="40" viewBox="0 0 39 40" fill="none" xmlns="http://www.w3.org/2000/svg">
<g clipPath="url(#clip0_106_9)">
<path d="M0 0H39V40H0V0Z" fill="#F7DF1E"/>
<path d="M10.2545 33.4269L13.239 31.5744C13.8148 32.6214 14.3386 33.5074 15.595 33.5074C16.7992 33.5074 17.5587 33.0242 17.5587 31.1449V18.3639H21.2236V31.198C21.2236 35.0913 18.9985 36.8635 15.752 36.8635C12.8202 36.8635 11.1183 35.3061 10.2544 33.4266M23.2143 33.0241L26.1984 31.2521C26.984 32.5678 28.005 33.5344 29.8112 33.5344C31.3299 33.5344 32.2982 32.7556 32.2982 31.6816C32.2982 30.3928 31.3034 29.9363 29.628 29.1847L28.7119 28.7816C26.0677 27.6274 24.3137 26.1774 24.3137 23.1164C24.3137 20.2971 26.408 18.1489 29.6805 18.1489C32.0105 18.1489 33.6859 18.9814 34.8901 21.1563L32.0364 23.036C31.4079 21.8814 30.7276 21.425 29.6804 21.425C28.6069 21.425 27.9263 22.1231 27.9263 23.036C27.9263 24.1636 28.6069 24.6203 30.1776 25.3185L31.0938 25.7211C34.2092 27.0906 35.9632 28.4867 35.9632 31.628C35.9632 35.0114 33.3715 36.8639 29.8897 36.8639C26.4865 36.8639 24.2874 35.1992 23.2141 33.0242" fill="black"/>
</g>
<defs>
<clipPath id="clip0_106_9">
<rect width="39" height="40" fill="white"/>
</clipPath>
</defs>
</svg>
