<svg width="128" height="114" viewBox="0 0 128 114" fill="none" xmlns="http://www.w3.org/2000/svg">
<g clipPath="url(#clip0_72_906)">
<path d="M105.242 36.9119C103.879 36.4445 102.506 36.0116 101.121 35.6134C101.354 34.6634 101.568 33.7249 101.758 32.8029C104.877 17.6624 102.838 5.46491 95.8735 1.44891C89.196 -2.40109 78.2755 1.61341 67.2465 11.2119C66.1595 12.1596 65.0967 13.1346 64.059 14.1359C63.3643 13.47 62.6574 12.8171 61.9385 12.1774C50.3795 1.91441 38.7935 -2.41109 31.8365 1.61641C25.165 5.47841 23.1895 16.9449 25.9975 31.2939C26.2769 32.715 26.5923 34.1288 26.9435 35.5339C25.3035 35.9999 23.721 36.4959 22.2065 37.0239C8.6545 41.7489 0 49.1534 0 56.8339C0 64.7664 9.291 72.7229 23.406 77.5474C24.5503 77.9369 25.7042 78.2979 26.8665 78.6299C26.489 80.1433 26.1539 81.6668 25.8615 83.1989C23.1845 97.2989 25.275 108.494 31.9285 112.332C38.8005 116.295 50.3345 112.222 61.565 102.404C62.4757 101.606 63.3663 100.786 64.236 99.9429C65.3598 101.027 66.5136 102.08 67.696 103.1C78.575 112.461 89.319 116.241 95.966 112.393C102.832 108.418 105.063 96.3914 102.166 81.7589C101.938 80.6126 101.682 79.4719 101.398 78.3379C102.208 78.0979 103.004 77.8509 103.779 77.5939C118.452 72.7324 128 64.8724 128 56.8339C128 49.1254 119.066 41.6709 105.242 36.9119ZM102.059 72.4039C101.359 72.6354 100.641 72.8589 99.909 73.0764C98.289 67.9479 96.103 62.4949 93.4275 56.8604C95.9805 51.3604 98.0825 45.9769 99.657 40.8819C100.966 41.2609 102.237 41.6604 103.462 42.0819C115.307 46.1599 122.532 52.1884 122.532 56.8339C122.532 61.7819 114.729 68.2054 102.059 72.4039ZM96.802 82.8209C98.083 89.2909 98.2655 95.1409 97.417 99.7144C96.655 103.824 95.122 106.563 93.226 107.661C89.1925 109.996 80.566 106.961 71.2625 98.9549C70.1627 98.0066 69.0894 97.0279 68.044 96.0199C71.651 92.0754 75.2555 87.4899 78.7735 82.3969C84.9615 81.8479 90.8075 80.9499 96.109 79.7244C96.3644 80.751 96.5955 81.7834 96.802 82.8209ZM43.638 107.257C39.697 108.649 36.558 108.689 34.6605 107.595C30.623 105.266 28.9445 96.2769 31.234 84.2189C31.5062 82.7941 31.8178 81.377 32.1685 79.9694C37.4115 81.1294 43.215 81.9634 49.4175 82.4664C52.9595 87.4499 56.668 92.0304 60.4055 96.0414C59.6112 96.81 58.7981 97.5589 57.967 98.2874C53.0005 102.628 48.024 105.708 43.638 107.257ZM25.175 72.3734C18.9335 70.2399 13.779 67.4674 10.246 64.4419C7.071 61.7234 5.4685 59.0239 5.4685 56.8339C5.4685 52.1729 12.417 46.2279 24.0065 42.1874C25.413 41.6974 26.885 41.2349 28.4125 40.8009C30.0145 46.0109 32.1155 51.4584 34.651 56.9669C32.0825 62.5569 29.9515 68.0914 28.334 73.3629C27.2731 73.059 26.2197 72.7291 25.175 72.3734ZM31.364 30.2434C28.9585 17.9499 30.556 8.67641 34.5765 6.34891C38.8585 3.86991 48.3275 7.40441 58.308 16.2664C58.9588 16.8456 59.5991 17.4365 60.2285 18.0389C56.5095 22.0324 52.835 26.5789 49.3245 31.5329C43.3045 32.0909 37.542 32.9869 32.244 34.1874C31.9176 32.8805 31.6242 31.5651 31.364 30.2434ZM86.5775 43.8779C85.3261 41.7164 84.0283 39.582 82.685 37.4764C86.769 37.9929 90.682 38.6784 94.3565 39.5164C93.2535 43.0524 91.8785 46.7489 90.26 50.5389C89.077 48.2943 87.8492 46.0735 86.5775 43.8779ZM64.0615 21.9474C66.5835 24.6799 69.1095 27.7304 71.594 31.0404C66.554 30.8024 61.5056 30.8014 56.4655 31.0374C58.9525 27.7579 61.5 24.7114 64.0615 21.9474ZM41.401 43.9149C40.1452 46.0928 38.9403 48.2998 37.7875 50.5339C36.1955 46.7574 34.833 43.0439 33.7205 39.4579C37.3725 38.6409 41.267 37.9729 45.325 37.4659C43.9667 39.5844 42.6583 41.735 41.401 43.9149ZM45.4415 76.5909C41.249 76.1229 37.296 75.4894 33.645 74.6944C34.775 71.0444 36.1675 67.2519 37.794 63.3944C38.9514 65.6302 40.1613 67.8385 41.4225 70.0174C42.7195 72.2574 44.0625 74.4514 45.4415 76.5909ZM64.2125 92.1059C61.6205 89.3099 59.0355 86.2164 56.511 82.8894C58.962 82.9854 61.4605 83.0344 64 83.0344C66.609 83.0344 69.188 82.9759 71.7265 82.8629C69.234 86.2499 66.7175 89.3479 64.2125 92.1059ZM90.3115 63.1974C92.0225 67.0974 93.4645 70.8699 94.6095 74.4574C90.8985 75.3044 86.8915 75.9864 82.6695 76.4929C84.0224 74.3482 85.3325 72.1768 86.599 69.9799C87.8867 67.7469 89.1245 65.4855 90.3115 63.1974ZM81.8625 67.2479C79.9236 70.6161 77.8757 73.9203 75.722 77.1554C71.8208 77.4317 67.911 77.569 64 77.5669C60.0165 77.5669 56.142 77.4429 52.411 77.2009C50.2011 73.9733 48.1141 70.6633 46.1545 67.2779C44.2041 63.9105 42.3828 60.4701 40.6935 56.9644C42.3785 53.4579 44.1948 50.0159 46.1385 46.6459L46.138 46.6464C48.081 43.2755 50.1513 39.9796 52.3445 36.7659C56.151 36.4779 60.0545 36.3279 63.9995 36.3279C67.9625 36.3279 71.8715 36.4794 75.677 36.7694C77.848 39.9783 79.9051 43.2629 81.8445 46.6169C83.7947 49.9795 85.635 53.4047 87.3625 56.8869C85.6528 60.4048 83.8183 63.8606 81.8625 67.2479ZM93.1425 6.18591C97.4285 8.65791 99.0955 18.6264 96.4025 31.6989C96.2305 32.5329 96.0375 33.3824 95.8275 34.2439C90.5165 33.0179 84.75 32.1064 78.7125 31.5399C75.1955 26.5314 71.551 21.9779 67.8925 18.0359C68.8513 17.1117 69.833 16.2114 70.8365 15.3359C80.2865 7.11241 89.1185 3.86541 93.1425 6.18591ZM64 45.4039C70.3125 45.4039 75.43 50.5214 75.43 56.8339C75.43 63.1464 70.3125 68.2639 64 68.2639C57.6875 68.2639 52.57 63.1464 52.57 56.8339C52.57 50.5214 57.6875 45.4039 64 45.4039Z" fill="#00D8FF"/>
</g>
<defs>
<clipPath id="clip0_72_906">
<rect width="128" height="114" fill="white"/>
</clipPath>
</defs>
</svg>
