<svg width="85" height="84" viewBox="0 0 85 84" fill="none" xmlns="http://www.w3.org/2000/svg">
<g clip-path="url(#clip0_159_11)" filter="url(#filter0_d_159_11)">
<path d="M6.57267 0C5.89036 0 5.23598 0.269285 4.75351 0.748616C4.27105 1.22795 4 1.87805 4 2.55593V73.4441C4 74.1219 4.27105 74.7721 4.75351 75.2514C5.23598 75.7307 5.89036 76 6.57267 76C7.25498 76 7.90935 75.7307 8.39182 75.2514C8.87428 74.7721 9.14533 74.1219 9.14533 73.4441V2.55593C9.14533 1.87805 8.87428 1.22795 8.39182 0.748616C7.90935 0.269285 7.25498 0 6.57267 0Z" fill="white"/>
<path d="M78.4273 1.8606e-05C77.9173 0.000624211 77.4189 0.151837 76.9956 0.434448C76.5722 0.717058 76.243 1.11832 76.0497 1.58724L45.2002 38.6968L41.5399 33.5849L65.8265 4.36672C66.2612 3.84399 66.469 3.17112 66.4043 2.49614C66.3396 1.82117 66.0077 1.19937 65.4815 0.767544C64.9553 0.335719 64.2781 0.129237 63.5987 0.19352C62.9193 0.257804 62.2934 0.587592 61.8588 1.11033L18.686 53.0413V46.1857L53.6007 4.18788C54.0354 3.66514 54.2432 2.99227 54.1785 2.3173C54.1138 1.64232 53.7819 1.02052 53.2557 0.588699C52.7295 0.156874 52.0523 -0.0496084 51.3729 0.0146751C50.6935 0.0789585 50.0676 0.408747 49.633 0.931482L32.7494 21.2821L18.2509 1.07307C18.2134 1.0209 18.1684 0.983644 18.1309 0.931482L17.9359 0.722835C17.8744 0.664239 17.8092 0.609487 17.7409 0.558897L17.5459 0.409865C17.4733 0.365709 17.3982 0.325893 17.3209 0.290635L17.1033 0.186311L16.8633 0.11179C16.7808 0.11179 16.7058 0.0596305 16.6233 0.0447271H16.3308H16.1508H15.8433H15.6408L15.4082 0.11179L15.1607 0.193759L14.9882 0.290635C14.8943 0.332941 14.804 0.382781 14.7182 0.439667C14.6657 0.439667 14.6282 0.521638 14.5757 0.558897L14.3657 0.74519C14.3067 0.806322 14.2516 0.871023 14.2007 0.93893C14.1557 0.998544 14.0957 1.06562 14.0507 1.13268C14.0057 1.19975 13.9756 1.28171 13.9306 1.34878C13.8912 1.42368 13.8561 1.50082 13.8256 1.57978C13.8256 1.65429 13.7731 1.73626 13.7506 1.81078C13.7237 1.89149 13.7012 1.97357 13.6831 2.05669C13.6831 2.14611 13.6831 2.24298 13.6831 2.33986C13.6831 2.43673 13.6831 2.45909 13.6831 2.5187V73.4068C13.6831 74.0847 13.9542 74.7348 14.4366 75.2141C14.9191 75.6935 15.5735 75.9628 16.2558 75.9628C16.9381 75.9628 17.5925 75.6935 18.0749 75.2141C18.5574 74.7348 18.8285 74.0847 18.8285 73.4068V61.037L31.9993 45.2021L53.2932 74.8897C53.6911 75.4421 54.2935 75.8148 54.968 75.9259C55.6424 76.037 56.3337 75.8774 56.8897 75.4821C57.4457 75.0869 57.8209 74.4883 57.9327 73.8183C58.0445 73.1482 57.8838 72.4614 57.486 71.909L35.3895 41.1111L38.2847 37.6237L65.009 74.8823C65.4068 75.4346 66.0092 75.8074 66.6837 75.9185C67.3582 76.0296 68.0494 75.8699 68.6054 75.4747C69.1614 75.0794 69.5366 74.4809 69.6485 73.8108C69.7603 73.1407 69.5996 72.4539 69.2017 71.9016L48.4329 42.9517L75.9972 9.79901V73.3919C75.9972 74.0698 76.2682 74.7199 76.7507 75.1992C77.2332 75.6786 77.8875 75.9479 78.5698 75.9479C79.2522 75.9479 79.9065 75.6786 80.389 75.1992C80.8715 74.7199 81.1425 74.0698 81.1425 73.3919V2.55595C81.143 2.20805 81.0721 1.8637 80.934 1.544C80.7959 1.22429 80.5935 0.935961 80.3393 0.696672C80.0851 0.457383 79.7844 0.272173 79.4557 0.152382C79.1269 0.0325913 78.777 -0.0192535 78.4273 1.8606e-05ZM18.686 38.1528V10.5814L29.3141 25.3955L18.686 38.1528Z" fill="white"/>
</g>
<defs>
<filter id="filter0_d_159_11" x="0" y="0" width="85" height="84" filterUnits="userSpaceOnUse" color-interpolation-filters="sRGB">
<feFlood flood-opacity="0" result="BackgroundImageFix"/>
<feColorMatrix in="SourceAlpha" type="matrix" values="0 0 0 0 0 0 0 0 0 0 0 0 0 0 0 0 0 0 127 0" result="hardAlpha"/>
<feOffset dy="4"/>
<feGaussianBlur stdDeviation="2"/>
<feComposite in2="hardAlpha" operator="out"/>
<feColorMatrix type="matrix" values="0 0 0 0 0 0 0 0 0 0 0 0 0 0 0 0 0 0 0.25 0"/>
<feBlend mode="normal" in2="BackgroundImageFix" result="effect1_dropShadow_159_11"/>
<feBlend mode="normal" in="SourceGraphic" in2="effect1_dropShadow_159_11" result="shape"/>
</filter>
<clipPath id="clip0_159_11">
<rect width="77" height="76" fill="white" transform="translate(4)"/>
</clipPath>
</defs>
</svg>
