<svg width="136" height="89" viewBox="0 0 136 89" fill="none" xmlns="http://www.w3.org/2000/svg">
<g clip-path="url(#clip0_72_946)" filter="url(#filter0_d_72_946)">
<path fill-rule="evenodd" clip-rule="evenodd" d="M72.2894 48.6295L73.9314 48.6385C73.54 48.8634 72.8202 48.7825 72.2894 48.7825V48.634V48.6295ZM71.8395 48.481C71.9835 48.3371 72.3164 48.67 72.015 48.562C72.0105 48.562 71.6371 48.6835 71.8395 48.481ZM67.7818 47.4284C67.7953 47.4149 67.8268 47.4509 67.8268 47.4734C67.8268 47.4824 67.8448 47.4914 67.8448 47.4914C67.8403 47.4869 67.5794 47.6308 67.7818 47.4284ZM67.332 47.2799C67.3455 47.2664 67.3769 47.3024 67.3769 47.3249C67.3769 47.3339 67.3949 47.3429 67.3949 47.3429C67.3904 47.3384 67.1295 47.4824 67.332 47.2799ZM66.8821 47.1315C67.0261 46.9875 67.359 47.3204 67.0576 47.2125C67.0531 47.2125 66.6797 47.3339 66.8821 47.1315ZM71.5426 46.983C71.5561 46.9695 71.5876 47.0055 71.5876 47.028C71.5876 47.037 71.6056 47.046 71.6056 47.046C71.6011 47.0415 71.3402 47.1855 71.5426 46.983ZM70.7779 46.947L70.3415 46.992C70.4225 46.9335 70.283 46.6726 70.7779 46.947ZM69.7387 46.6861C69.8827 46.5422 70.2111 46.8751 69.9142 46.7671C69.9097 46.7671 69.5363 46.8886 69.7387 46.6861ZM78.4569 46.5377C78.6009 46.3937 78.9293 46.7266 78.6324 46.6186C78.6279 46.6186 78.2545 46.7401 78.4569 46.5377ZM68.9874 46.5377C69.1314 46.3937 69.4598 46.7266 69.1629 46.6186C69.1584 46.6186 68.7805 46.7401 68.9874 46.5377ZM79.0553 46.3892C79.0687 46.3757 79.1002 46.4117 79.1002 46.4342C79.1002 46.4432 79.1182 46.4522 79.1182 46.4522C79.1137 46.4477 78.8528 46.5916 79.0553 46.3892ZM79.6581 46.2408C79.6716 46.2273 79.703 46.2633 79.703 46.2857C79.703 46.2947 79.721 46.3037 79.721 46.3037C79.7165 46.2992 79.4556 46.4432 79.6581 46.2408ZM67.9348 46.2408C68.0787 46.0968 68.4116 46.4297 68.1102 46.3217C68.1057 46.3217 67.7323 46.4432 67.9348 46.2408ZM78.7538 46.2408C79.0238 46.0698 78.8348 45.9529 79.3432 46.2003L78.7538 46.2408ZM79.5051 45.9394C79.5186 45.9259 79.5501 45.9618 79.5501 45.9843C79.5501 45.9933 79.5681 46.0023 79.5681 46.0023C79.5636 45.9978 79.3027 46.1418 79.5051 45.9394ZM67.1835 45.9394C67.197 45.9259 67.2285 45.9618 67.2285 45.9843C67.2285 45.9933 67.2465 46.0023 67.2465 46.0023C67.242 45.9978 66.9811 46.1418 67.1835 45.9394ZM78.0026 45.9394C78.2725 45.7684 78.0836 45.6514 78.5919 45.8989L78.0026 45.9394ZM78.7583 45.6424C78.7718 45.6289 78.8033 45.6649 78.8033 45.6874C78.8033 45.6964 78.8213 45.7054 78.8213 45.7054C78.8168 45.7009 78.5559 45.8449 78.7583 45.6424ZM71.2322 45.6829L70.7959 45.8134C71.0073 45.629 70.5125 45.6514 71.2322 45.6829ZM70.1931 45.494C70.2066 45.4805 70.238 45.5165 70.238 45.539C70.238 45.548 70.256 45.557 70.256 45.557C70.2515 45.5525 69.9906 45.6964 70.1931 45.494ZM69.7432 45.341C69.7567 45.3275 69.7882 45.3635 69.7882 45.386C69.7882 45.395 69.8062 45.404 69.8062 45.404C69.8017 45.3995 69.5408 45.5435 69.7432 45.341ZM69.1404 45.1926C69.1539 45.1791 69.1854 45.2151 69.1854 45.2376C69.1854 45.2466 69.2034 45.2556 69.2034 45.2556C69.1989 45.2511 68.938 45.395 69.1404 45.1926ZM80.7107 44.5898C80.7242 44.5763 80.7557 44.6123 80.7557 44.6348C80.7557 44.6438 80.7737 44.6528 80.7737 44.6528C80.7692 44.6483 80.5083 44.7922 80.7107 44.5898ZM81.0121 44.4413C81.0256 44.4278 81.0571 44.4638 81.0571 44.4863C81.0571 44.4953 81.0751 44.5043 81.0751 44.5043C81.0706 44.4998 80.8097 44.6438 81.0121 44.4413ZM81.3135 44.2929C81.327 44.2794 81.3585 44.3154 81.3585 44.3379C81.3585 44.3469 81.3765 44.3559 81.3765 44.3559C81.372 44.3514 81.1111 44.4953 81.3135 44.2929ZM82.2178 43.996L82.2582 43.8565L82.3707 43.942L82.2222 43.9915L82.2178 43.996ZM82.6676 43.6946L82.6271 43.834L82.5147 43.7485L82.6631 43.6991L82.6676 43.6946ZM83.4189 43.2492C83.6528 42.9163 83.9452 42.7499 84.3186 42.6464C84.0172 43.1053 83.9452 43.1187 83.4189 43.2492ZM66.4367 47.01C64.6418 46.8526 60.5931 43.7396 59.6754 42.3495C60.1117 42.4665 62.1721 44.4188 62.8604 44.8777C63.4542 45.2736 63.994 45.6065 64.6058 45.9888C65.1816 46.3487 65.9734 46.6006 66.4412 47.01H66.4367ZM84.3186 42.6509C84.602 42.2145 84.476 42.318 84.9214 42.201C84.638 42.6374 84.7639 42.5339 84.3186 42.6509ZM84.9214 42.201L85.5242 41.5982C85.4252 42.0796 85.3623 42.0841 84.9214 42.201ZM77.5572 41.7512L77.5212 41.8906L77.4088 41.8052L77.5572 41.7557V41.7512ZM59.221 41.8996L59.0816 41.8591L59.167 41.7467L59.2165 41.8951L59.221 41.8996ZM85.5242 41.6027L85.5647 41.4633L85.6772 41.5487L85.5287 41.5982L85.5242 41.6027ZM88.3808 38.2963C88.3943 38.2828 88.4258 38.3188 88.4258 38.3413C88.4258 38.3503 88.4438 38.3592 88.4438 38.3592C88.4393 38.3547 88.1784 38.4987 88.3808 38.2963ZM88.8307 37.8464L88.7947 37.9859L88.6822 37.9004L88.8307 37.8509V37.8464ZM56.0675 36.7937C56.081 36.7803 56.1125 36.8162 56.1125 36.8387C56.1125 36.8477 56.1305 36.8567 56.1305 36.8567C56.126 36.8522 55.8651 36.9962 56.0675 36.7937ZM90.1802 34.8369C90.1937 34.8234 90.2252 34.8594 90.2252 34.8818C90.2252 34.8908 90.2432 34.8998 90.2432 34.8998C90.2387 34.8953 89.9778 35.0393 90.1802 34.8369ZM90.3287 34.5355C90.3287 34.1891 90.5131 34.5085 90.4232 34.5355C90.4232 34.5355 90.3287 34.9223 90.3287 34.5355ZM90.4771 33.9326C90.4906 33.9192 90.5221 33.9551 90.5221 33.9776C90.5221 33.9866 90.5401 33.9956 90.5401 33.9956C90.5356 33.9911 90.2747 34.1351 90.4771 33.9326ZM90.7785 33.0284C90.7785 32.682 90.963 33.0014 90.873 33.0284C90.873 33.0284 90.7785 33.4153 90.7785 33.0284ZM90.927 32.2772C90.9405 32.2637 90.972 32.2997 90.972 32.3222C90.972 32.3312 90.99 32.3402 90.99 32.3402C90.9855 32.3357 90.7246 32.4796 90.927 32.2772ZM91.0575 31.5304C91.2239 31.7194 91.2104 31.319 91.1924 31.9668L91.0575 31.5304ZM91.2689 31.364C91.2329 31.0401 91.4218 27.9181 91.4938 27.7786C91.5973 28.7278 91.7007 30.6352 91.2689 31.364ZM78.9068 41.3013L78.4569 41.4498C78.3625 41.9086 78.0116 41.4543 78.0071 41.4498C77.2378 41.4498 76.9094 41.6657 76.1987 41.7467C75.5734 41.8187 74.7096 41.8456 74.1293 41.9356C73.1261 42.0886 70.9263 42.1156 70.1886 41.6027C68.7625 41.4768 66.4952 39.9832 65.708 39.9742C65.8429 40.7795 66.5537 41.5083 67.0216 42.165C64.6418 42.426 62.595 39.6773 60.9125 38.4582L61.1509 39.1645C60.4446 39.0565 60.4941 38.5212 59.9723 38.1478L59.7294 38.3053L59.1266 37.689C59.2885 39.2455 62.5905 42.183 63.8546 43.1367C65.582 44.4413 69.2978 45.9708 71.3942 45.9708C71.7451 45.512 71.7945 45.9618 72.3119 46.1058C72.3704 46.1238 72.6043 46.1463 72.7078 46.1643C74.7321 46.5287 76.5046 45.9708 78.0071 45.9708C77.1838 46.5422 75.8073 46.4927 74.7141 46.6096C75.8523 47.1405 77.5617 46.2947 78.7583 46.2723C76.9139 47.5543 71.2367 46.9965 68.4431 46.0653C67.8223 45.8584 65.9509 45.0037 65.546 44.9587L66.1353 45.521C63.7016 44.9317 60.3952 41.6522 58.9646 39.7628C58.1099 38.6337 57.1382 37.0592 56.5804 35.6826C56.0225 34.3015 55.1678 32.0253 55.1678 30.5182L54.718 30.4777C54.9159 31.3145 54.9519 32.3267 55.2893 33.6717C55.5232 34.6029 55.8111 35.7771 56.207 36.6093C55.6851 36.4788 55.2758 35.1698 55.0643 34.6479C54.9024 34.243 54.8034 33.9102 54.6595 33.5458C54.457 33.0239 54.3806 32.745 53.9532 32.5741C53.5033 33.3883 53.8857 34.549 54.1331 35.2777C56.1035 41.0719 60.6336 46.3442 66.3783 48.2876C68.884 49.1333 69.9051 49.2818 72.5998 49.2818C76.3381 49.2818 81.0166 48.2561 84.1117 46.3667C88.5473 43.6541 91.4623 38.0443 92.3036 32.907C92.6589 30.7387 92.6589 28.4264 92.3036 26.2536C91.0709 18.732 85.8931 13.2797 78.7449 10.9494C77.1164 10.4186 74.3273 9.80229 72.6403 9.90125C72.2309 9.35693 71.9115 8.51569 71.3762 7.80042C70.2785 6.33838 67.4984 3.56726 65.8429 3.41431C66.1218 3.80568 67.215 4.32752 67.6829 4.73239C68.848 5.74007 71.907 8.72263 72.1274 9.85627C71.0523 9.94174 69.3968 9.73481 68.5601 10.1442C69.7612 10.2746 70.8903 9.91025 72.2669 10.0722C72.7348 10.4861 72.5323 10.4951 72.8697 10.774L72.7393 10.0722C73.2116 10.1352 73.63 10.1487 74.0798 10.2162C74.5432 10.2881 74.9121 10.4591 75.4384 10.5131C75.3529 11.0214 75.155 10.8235 76.824 11.4488C76.0097 11.5747 74.1653 11.1159 73.2116 11.0799C72.7617 11.0619 70.2245 11.1384 70.0941 11.9526C70.9623 12.5779 75.4024 12.1595 77.1074 13.0053C76.4191 13.0817 75.8568 12.9243 75.164 12.8973C74.4667 12.8703 74.0438 12.7219 73.2071 12.7399C72.5278 12.7534 70.1301 13.0098 69.7702 13.4596C71.1468 13.6126 71.7946 13.3742 74.1293 13.6351C75.5869 13.797 76.4281 13.6576 77.8721 14.3998C78.5424 14.7462 78.7359 14.6023 79.2307 14.8452C79.6041 15.0296 81.318 16.0463 81.552 16.2802C84.1971 18.9344 85.5242 19.8791 86.9772 23.6309C87.2022 24.2157 87.5306 24.5036 87.643 24.922L87.8275 28.107C87.6655 29.1552 87.8095 30.3293 87.5576 31.4539C87.2292 32.916 86.3789 35.2867 85.3353 36.4474C85.3623 36.9017 85.3218 36.3214 85.5107 36.9242C84.656 37.2661 83.4459 38.7416 82.5731 39.3984C81.9029 39.9023 81.7724 40.2487 81.0121 40.5411C80.4408 40.757 79.4781 41.2653 78.9248 41.3103L78.9068 41.3013Z" fill="#40586F"/>
<path fill-rule="evenodd" clip-rule="evenodd" d="M56.5129 29.9786C56.6568 29.8347 56.9852 30.1676 56.6883 30.0596C56.6838 30.0596 56.3105 30.1811 56.5129 29.9786ZM55.6087 29.8302L56.0495 29.8527C55.5547 30.1226 55.7841 29.9426 55.6087 29.8302ZM55.6087 29.8302L55.1678 29.8077C55.6627 29.5378 55.4332 29.7177 55.6087 29.8302ZM54.8574 29.5288C54.8709 29.5153 54.9024 29.5513 54.9024 29.5737C54.9024 29.5827 54.9204 29.5917 54.9204 29.5917C54.9159 29.5872 54.655 29.7312 54.8574 29.5288ZM51.4025 27.7248L51.542 27.7608L51.4565 27.8733L51.407 27.7248H51.4025ZM51.4025 27.7248L51.2631 27.6844L51.3485 27.5719L51.398 27.7203L51.4025 27.7248ZM50.7997 27.275L50.9392 27.311L50.8537 27.4234L50.8042 27.275H50.7997ZM50.6512 27.1265L50.5118 27.086L50.5973 26.9736L50.6467 27.122L50.6512 27.1265ZM47.6462 23.5187L47.7856 23.5547L47.7002 23.6671L47.6507 23.5187H47.6462ZM47.6462 23.5187L47.5067 23.4782L47.5922 23.3657L47.6417 23.5142L47.6462 23.5187ZM47.3448 23.0688L47.4842 23.1048L47.3988 23.2173L47.3493 23.0688H47.3448ZM47.0434 22.466C47.0569 22.4525 47.0884 22.4885 47.0884 22.511C47.0884 22.52 47.1064 22.529 47.1064 22.529C47.1019 22.5245 46.841 22.6684 47.0434 22.466ZM46.8949 22.1646C46.9084 22.1511 46.9399 22.1871 46.9399 22.2096C46.9399 22.2186 46.9579 22.2276 46.9579 22.2276C46.9534 22.2231 46.6925 22.367 46.8949 22.1646ZM46.7465 21.8632C46.7465 21.5168 46.9309 21.8362 46.8409 21.8632C46.8409 21.8632 46.7465 22.2546 46.7465 21.8632ZM46.598 21.4133C46.6115 21.3998 46.643 21.4358 46.643 21.4583C46.643 21.4673 46.661 21.4763 46.661 21.4763C46.6565 21.4718 46.3956 21.6158 46.598 21.4133ZM72.1454 21.1119L72.105 21.2514L71.9925 21.1659L72.1409 21.1164L72.1454 21.1119ZM46.4496 20.9635C46.4631 20.95 46.4946 20.986 46.4946 21.0085C46.4946 21.0175 46.5126 21.0265 46.5126 21.0265C46.5081 21.022 46.2471 21.1659 46.4496 20.9635ZM49.0048 18.1069L48.9823 18.5477C48.7124 18.0529 48.8923 18.2823 49.0048 18.1069ZM45.208 15.4122L45.244 17.792C44.9875 17.3151 44.9785 15.8756 45.208 15.4122ZM48.7034 17.5041C48.7169 17.4906 48.7483 17.5266 48.7483 17.5491C48.7483 17.5581 48.7663 17.5671 48.7663 17.5671C48.7618 17.5626 48.5009 17.7065 48.7034 17.5041ZM44.0428 13.1449C44.0428 12.7986 44.2273 13.118 44.1373 13.1449C44.1373 13.1449 44.0428 13.5318 44.0428 13.1449ZM44.1913 12.5421C44.2048 12.5286 44.2363 12.5646 44.2363 12.5871C44.2363 12.5961 44.2543 12.6051 44.2543 12.6051C44.2498 12.6006 43.9889 12.7446 44.1913 12.5421ZM50.0529 11.9393L50.0124 12.0788L49.9 11.9933L50.0484 11.9438L50.0529 11.9393ZM47.4977 8.47993L47.4573 8.61938L47.3448 8.53391L47.4932 8.48442L47.4977 8.47993ZM47.4977 8.47993L47.5337 8.34047L47.6462 8.42594L47.4977 8.47543V8.47993ZM46.2966 8.33147C46.3101 8.31798 46.3416 8.35397 46.3416 8.37646C46.3416 8.38546 46.3596 8.39445 46.3596 8.39445C46.3551 8.38995 46.0942 8.53391 46.2966 8.33147ZM46.7465 7.88161L46.706 8.02107L46.5935 7.9356L46.742 7.88611L46.7465 7.88161ZM47.3403 7.13485C47.4618 6.69399 47.3583 6.81995 47.7901 6.53204C47.6687 6.9729 47.7722 6.84694 47.3403 7.13485ZM48.0916 6.23064L48.0781 6.50505L47.7946 6.53204L48.0961 6.23064H48.0916ZM48.393 5.92923L48.3795 6.20364L48.0961 6.23064L48.3975 5.92923H48.393ZM48.393 5.92923C48.6809 5.49287 49.0992 5.01152 49.5941 4.87656C49.3062 5.31293 48.8878 5.79427 48.393 5.92923ZM49.5941 4.87656C49.891 4.43121 50.2869 4.11181 50.7952 3.97235C50.5568 4.33674 49.99 4.7686 49.5941 4.87656ZM50.7952 3.97235L50.8312 3.83289L50.9437 3.91837L50.7952 3.96785V3.97235ZM54.7045 30.433L55.1543 30.4735C55.8696 31.1123 60.2017 31.2742 61.1644 30.8154H61.3129C63.5487 31.0808 68.5466 28.0307 70.2695 25.714C72.4379 22.8034 74.2373 19.416 74.2373 15.5472C74.0528 15.8351 73.8504 17.4996 73.7244 18.0439C73.4815 19.0876 73.4275 19.4115 72.9372 20.4146L72.5368 20.4281L72.1364 21.1164C72.1994 20.3877 72.6133 19.5734 72.7752 18.7502C72.9597 17.819 73.1891 17.0497 72.7393 16.1545C71.9115 16.7438 71.853 19.8028 71.0883 20.6666C71.1153 19.3215 72.1994 17.1937 71.5921 15.8801C71.2322 16.3659 71.1603 17.4591 71.0028 18.1744C70.8409 18.9121 70.6114 19.6634 70.3595 20.3877C69.4778 22.9069 67.0711 25.1112 64.6823 26.2853C62.496 27.3605 61.0475 27.1715 60.2827 27.7473C58.7442 27.329 58.3483 27.5224 58.0424 27.4909C57.75 27.4594 57.8535 27.3739 57.4126 27.329C56.5894 27.3515 57.0752 27.329 56.8233 27.1355C56.4994 27.1355 56.7738 27.176 56.6613 26.9871C56.243 27.149 55.3028 26.7531 54.8574 26.5192L54.3581 26.2358C53.4584 25.705 52.6756 25.3136 52.0278 24.5488C51.6814 24.1395 51.7354 24.189 51.2765 24.2564C51.0651 23.0643 48.8968 20.986 49.0093 19.0291C49.0408 18.4803 49.3826 18.6242 48.9958 18.1159C48.9958 16.294 49.0408 13.9457 49.747 12.4027L50.1969 11.9528H50.0484L50.1969 11.6514L50.3453 11.35L50.6467 10.9002C50.8177 10.2749 51.452 9.45612 52.0008 9.09623L51.9108 8.76783C50.9167 8.83531 50.8267 9.24918 50.0754 9.37514C50.3408 7.75565 52.5316 6.43307 53.7823 5.43889L53.2109 5.27694L54.4121 4.58866L54.1107 4.51668L54.4121 4.4357L54.709 4.03083C52.4912 4.27376 49.702 6.78396 48.276 8.66887C45.6758 12.1103 45.6308 16.6583 45.4374 17.0542L45.3969 15.2638C44.8976 14.8859 45.9637 12.0113 46.2067 11.413C46.553 10.5538 47.8351 8.61938 47.9521 8.19651L47.6687 8.13803C49.4636 6.26213 50.3768 4.94404 53.2604 3.58097C54.4975 3.00066 55.7436 2.65877 57.0617 2.42034C59.6349 1.95699 59.8328 2.33487 61.9247 2.14593C60.989 1.61959 58.5507 1.66908 57.3901 1.84452C57.0437 1.89851 56.045 2.01547 55.7751 1.99748C56.5264 1.57461 58.7982 1.50713 59.257 0.976298C58.4113 0.000106931 54.682 1.10226 53.6158 1.52962C49.1667 3.33355 46.2291 5.83026 44.3892 10.3423C42.7113 14.4675 43.2826 21.8497 45.9592 24.7738C47.3448 26.2853 47.9431 27.0366 49.7245 28.2242C51.0021 29.0744 53.2559 30.343 54.7135 30.442L54.7045 30.433Z" fill="#219AB5"/>
<path fill-rule="evenodd" clip-rule="evenodd" d="M54.3581 26.2221L54.8574 26.5055C54.8799 25.5293 55.6627 23.2575 56.036 22.2903C56.8593 20.185 58.6857 17.3374 60.3007 15.7314C60.8135 15.2186 62.8469 13.3742 63.1213 12.9873C61.3623 13.1447 58.5462 16.7616 57.5296 18.3676C56.8368 19.4652 56.099 20.9453 55.7571 22.1554C55.5547 22.8752 54.7944 25.9297 54.3581 26.2176V26.2221ZM56.8233 27.1218C57.0752 27.3198 56.5894 27.3377 57.4126 27.3153C57.6465 26.2041 57.831 25.057 58.1819 23.9773C58.4653 23.0956 59.185 21.8585 59.3695 21.1027C58.2493 21.9035 57.2641 25.4888 57.2641 26.8159C57.1112 27.3333 57.4036 26.9689 56.8278 27.1173L56.8233 27.1218ZM58.3168 37.5C57.9569 36.011 57.1967 35.4532 56.5264 31.9218C56.4679 31.6159 56.5399 31.7509 56.4274 31.4225C56.2205 30.8061 56.3779 31.2695 56.2115 31.0356C55.9191 31.5394 56.6253 34.0181 56.8098 34.4995C57.0662 35.1698 57.75 37.0997 58.3168 37.5045V37.5ZM67.3185 6.78375C66.1938 5.22724 62.6624 3.68873 60.746 3.84168L61.6548 4.08461C65.1771 4.92134 66.7921 6.71177 67.3185 6.78825V6.78375ZM55.3118 3.36033L59.0411 2.94647C59.284 2.96446 59.392 3.26137 60.1207 2.75753C58.6857 2.75753 56.3464 2.64056 55.3118 3.36033Z" fill="#40586F"/>
<path fill-rule="evenodd" clip-rule="evenodd" d="M65.2266 3.05901C64.7003 2.31675 62.9863 1.79491 62.0821 1.89388C62.1811 1.97036 64.9117 2.98254 65.2266 3.05901Z" fill="#219AB5"/>
<path fill-rule="evenodd" clip-rule="evenodd" d="M67.1835 40.0554L64.9477 38.2875C65.1142 39.2682 66.2073 39.817 67.1835 40.0554ZM56.6613 26.9736C56.8098 26.7442 56.9717 25.57 57.0797 25.1382C57.2327 24.5309 57.5071 23.973 57.5611 23.3657C56.9583 24.045 56.6613 25.9569 56.6613 26.9736Z" fill="#40586F"/>
<path fill-rule="evenodd" clip-rule="evenodd" d="M52.0053 9.07365L51.5555 9.97787L53.2109 8.47534C52.4237 8.54282 52.5721 8.70477 52.0098 9.07815L52.0053 9.07365Z" fill="#219AB5"/>
<path fill-rule="evenodd" clip-rule="evenodd" d="M62.2216 34.6435C62.2666 35.1653 62.37 35.4847 62.6714 35.8716C62.9144 35.4397 62.64 34.9404 62.2216 34.6435ZM61.3219 30.8107H61.1734C60.98 31.3505 60.908 31.6114 61.4613 31.7464L61.3219 30.8107ZM61.3579 25.7543C61.6323 25.3854 61.7402 24.8501 61.7447 24.4407C61.4388 24.8051 61.3039 25.165 61.3579 25.7543ZM55.4647 6.9997C55.5592 7.20663 55.2533 7.41807 55.9551 7.19764C56.1395 7.13916 56.3959 6.94122 56.4994 6.86474L55.4647 7.0042V6.9997ZM78.0026 41.4093H78.4524L78.9023 41.2609V41.1124C78.313 41.1259 78.4075 41.0494 78.0026 41.4138V41.4093ZM70.1886 41.5578L70.9263 41.5443L69.8872 41.2609L70.1886 41.5578ZM64.0255 7.87242C63.7016 7.58452 63.6881 7.49005 63.2877 7.68348L64.0255 7.87242ZM69.8872 41.2609L68.9874 40.9595C69.3923 41.3193 69.3023 41.2474 69.8872 41.2609ZM58.6137 6.6713L59.5089 6.62632L58.6137 6.51385V6.6713ZM68.2317 10.729C67.6064 10.729 67.9393 10.675 67.6289 10.8775C68.2542 10.873 67.9213 10.9315 68.2317 10.729ZM63.2742 3.81471C62.9638 3.61227 63.2967 3.66625 62.6714 3.66625C62.9818 3.86869 62.6489 3.81471 63.2742 3.81471ZM57.5656 23.361L57.867 22.7627L57.5925 22.9337L57.5656 23.361ZM62.6714 3.66176C62.5185 3.56279 62.7299 3.36935 62.2351 3.62577L62.6714 3.66176ZM54.4076 3.66176C54.5515 3.80571 54.8799 3.47282 54.583 3.58078C54.5785 3.58078 54.2006 3.45932 54.4076 3.66176ZM55.3118 3.36035L54.8709 3.38284C55.3658 3.65276 55.1363 3.47282 55.3118 3.36035ZM50.2014 11.9346L50.3498 11.6332H50.2014V11.9346ZM50.3498 11.6332L50.5028 11.3318H50.3498V11.6332ZM50.6512 11.1834L50.7997 10.882H50.6512V11.1834ZM54.4076 4.41302V4.56597L54.709 4.49399L54.4076 4.41302ZM73.684 14.7777L73.8144 14.1929C73.7739 14.2244 73.7379 14.2289 73.7334 14.2829L73.684 14.7777ZM58.6137 38.1029L58.6542 38.2378L58.7667 38.1523L58.6137 38.1029ZM51.2541 10.2792L51.1146 10.3197L51.2001 10.4276L51.2541 10.2792ZM59.3695 21.1072L59.5044 21.0667L59.419 20.9588L59.3695 21.1072ZM62.2216 34.6435L62.1856 34.504L62.0731 34.5895L62.2216 34.6435ZM67.332 11.0304L67.197 11.0709L67.2825 11.1789L67.332 11.0304ZM58.0154 22.3084L58.1504 22.2724L58.0649 22.1599L58.0154 22.3084ZM68.0832 40.5096L68.1237 40.6446L68.2317 40.5591L68.0832 40.5096ZM64.3269 8.02538L64.3674 8.16033L64.4754 8.07486L64.3269 8.02538ZM50.9526 10.729L51.0876 10.693L51.0021 10.5806L50.9526 10.729ZM78.9023 41.1079L79.0418 41.0719L78.9563 40.9595L78.9023 41.1079ZM58.6137 38.1029L58.5777 37.9634L58.4653 38.0489L58.6137 38.1029ZM66.5807 5.61864L66.6212 5.75359L66.7292 5.66812L66.5807 5.61864Z" fill="#40586F"/>
<path fill-rule="evenodd" clip-rule="evenodd" d="M53.2064 8.47525L53.3459 8.43476L53.2559 8.3268L53.2064 8.47525ZM47.9476 8.17384L48.0826 8.13336L47.9971 8.02539L47.9476 8.17384Z" fill="#219AB5"/>
<path fill-rule="evenodd" clip-rule="evenodd" d="M58.1639 22.0116C58.1774 22.0251 58.2089 21.9486 58.2089 21.9666C58.2089 21.9756 58.2268 21.9486 58.2268 21.9486C58.2223 21.9531 57.9614 21.8092 58.1639 22.0116ZM61.7717 24.2654C61.7852 24.2789 61.8167 24.2024 61.8167 24.2204C61.8167 24.2294 61.8347 24.2024 61.8347 24.2024C61.8302 24.2069 61.5693 24.0629 61.7717 24.2654ZM45.3924 14.6384C45.4059 14.6519 45.4374 14.5754 45.4374 14.5934C45.4374 14.6024 45.4554 14.5754 45.4554 14.5754C45.4509 14.5799 45.19 14.436 45.3924 14.6384Z" fill="#40586F"/>
<path fill-rule="evenodd" clip-rule="evenodd" d="M17.9601 56.0028C16.4845 54.6127 14.2757 53.9289 12.3369 53.9289C8.84596 53.9289 5.26959 55.6744 5.26959 59.6061C5.26959 63.2095 7.80679 64.3521 10.155 65.0899C12.5843 65.8546 14.6041 66.426 14.6041 68.4458C14.6041 70.5197 12.7237 71.3114 11.1132 71.3114C9.58823 71.3114 7.83828 70.4927 6.88458 69.1836L4.42836 71.4779C5.95788 73.2773 8.54906 74.231 11.0593 74.231C14.8516 74.231 18.0995 72.2111 18.0995 68.0635C18.0995 64.2712 14.937 63.178 12.4538 62.4177C10.272 61.734 8.76949 61.2166 8.76949 59.4442C8.76949 57.5638 10.5959 56.799 12.1794 56.799C13.5425 56.799 14.991 57.5098 15.7288 58.4635L17.9646 56.0073L17.9601 56.0028ZM118.503 77.7174C120.006 79.3009 122.296 80.2816 124.644 80.2816C130.29 80.2816 131.572 76.4083 131.572 73.6237V60.9647H129.718V63.1735H129.664C128.652 61.536 126.691 60.6363 124.833 60.6363C120.852 60.6363 118.229 63.6099 118.229 67.2357C118.229 70.974 120.847 73.7272 124.833 73.7272C126.686 73.7272 128.679 72.8005 129.664 71.2169H129.718V73.6192C129.718 76.3723 128.382 78.6396 124.725 78.6396C122.786 78.6396 120.852 77.6049 119.839 76.2913L118.503 77.7084V77.7174ZM120.195 67.1862C120.195 64.5141 121.94 62.1928 125.026 62.1928C127.892 62.1928 129.939 64.5096 129.939 67.1862C129.939 70.1328 127.892 72.1527 125.026 72.1527C121.945 72.1527 120.195 69.8629 120.195 67.1862ZM109.83 63.7763V73.7317H111.683V67.1862C111.683 63.7763 113.456 62.3593 115.422 62.3593C115.912 62.3593 116.515 62.4402 116.731 62.5212L116.978 60.7758C116.596 60.6678 116.213 60.6408 115.75 60.6408C113.951 60.6408 112.367 61.6755 111.656 63.151H111.602C111.602 62.6067 111.548 61.6485 111.494 60.9692H109.722C109.803 61.8419 109.83 63.097 109.83 63.7808V63.7763ZM105.849 67.3482C105.849 63.5019 103.01 60.6363 99.0289 60.6363C95.0747 60.6363 92.2361 63.5019 92.2361 67.3482C92.2361 71.1945 95.0747 74.0601 99.0289 74.0601C103.01 74.0601 105.849 71.1945 105.849 67.3482ZM103.883 67.3482C103.883 70.2138 102.002 72.4766 99.0244 72.4766C96.0779 72.4766 94.1975 70.2138 94.1975 67.3482C94.1975 64.4826 96.0779 62.1928 99.0244 62.1928C101.998 62.1928 103.883 64.4871 103.883 67.3482ZM88.6327 72.4226C88.6327 71.6578 88.0344 70.9515 87.1617 70.9515C86.289 70.9515 85.6906 71.6623 85.6906 72.4226C85.6906 73.1873 86.289 73.8936 87.1617 73.8936C88.0344 73.8936 88.6327 73.1828 88.6327 72.4226ZM76.1312 60.2539C74.1653 60.2539 72.6943 61.1536 71.8215 62.7371C71.0838 61.2661 69.7477 60.2539 67.7278 60.2539C65.627 60.2539 64.2369 61.455 63.6611 62.7371H63.6071V60.6363H60.4941V73.7317H63.7691V66.5294C63.7691 64.784 64.6688 62.9846 66.6347 62.9846C68.2991 62.9846 69.0639 64.2127 69.0639 65.8232V73.7362H72.3389V66.5879C72.3389 64.8965 73.1846 62.9846 75.2315 62.9846C77.3323 62.9846 77.6877 64.9234 77.6877 66.4755V73.7317H80.9626V65.5487C80.9626 62.8766 79.5456 60.2539 76.1357 60.2539H76.1312ZM56.5714 60.6363H53.2964V67.8385C53.2964 69.584 52.3157 71.3834 50.2419 71.3834C48.141 71.3834 47.7856 69.4445 47.7856 67.8925V60.6363H44.5107V68.8192C44.5107 71.4914 45.9277 74.114 49.3377 74.114C51.2765 74.114 52.8285 72.9399 53.4044 71.6308H53.4583V73.7317H56.5669V60.6363H56.5714ZM34.6903 73.7317H37.9652V66.7184C37.9652 65.7647 38.5366 63.2005 41.4831 63.2005C41.7845 63.2005 42.0545 63.2275 42.4908 63.3354V60.3349C42.2749 60.2809 41.9465 60.2539 41.6991 60.2539C39.9806 60.2539 38.5905 61.3201 37.8798 62.8181H37.8258V60.6363H34.6903V73.7317ZM32.5625 62.3008C31.5233 61.0187 29.5349 60.2539 27.623 60.2539C23.7767 60.2539 20.6097 62.9261 20.6097 67.1862C20.6097 71.5499 23.8307 74.1185 27.704 74.1185C29.6429 74.1185 31.4423 73.4617 32.5355 72.2921L30.4886 70.2183C29.8633 70.983 28.7432 71.3924 27.731 71.3924C25.2478 71.3924 24.0197 69.2376 24.0197 67.1907C24.0197 65.1439 25.2208 62.9891 27.623 62.9891C28.6847 62.9891 29.8048 63.5334 30.3222 64.2711L32.5625 62.3053V62.3008Z" fill="#40586F"/>
</g>
<defs>
<filter id="filter0_d_72_946" x="0" y="0" width="136" height="88.2815" filterUnits="userSpaceOnUse" color-interpolation-filters="sRGB">
<feFlood flood-opacity="0" result="BackgroundImageFix"/>
<feColorMatrix in="SourceAlpha" type="matrix" values="0 0 0 0 0 0 0 0 0 0 0 0 0 0 0 0 0 0 127 0" result="hardAlpha"/>
<feOffset dy="4"/>
<feGaussianBlur stdDeviation="2"/>
<feComposite in2="hardAlpha" operator="out"/>
<feColorMatrix type="matrix" values="0 0 0 0 0 0 0 0 0 0 0 0 0 0 0 0 0 0 0.25 0"/>
<feBlend mode="normal" in2="BackgroundImageFix" result="effect1_dropShadow_72_946"/>
<feBlend mode="normal" in="SourceGraphic" in2="effect1_dropShadow_72_946" result="shape"/>
</filter>
<clipPath id="clip0_72_946">
<rect width="128" height="80.2816" fill="white" transform="translate(4)"/>
</clipPath>
</defs>
</svg>
