<svg width="39" height="39" viewBox="0 0 39 39" fill="none" xmlns="http://www.w3.org/2000/svg">
<path d="M7.19312 33.1512L4.45581 2.4375H34.5443L31.8033 33.1463L19.4818 36.5625L7.19312 33.1512Z" fill="#1572B6"/>
<path d="M19.5 33.9521L29.4572 31.1916L31.7996 4.94946H19.5V33.9521Z" fill="#33A9DC"/>
<path d="M19.5 16.0766H24.4847L24.8284 12.2193H19.5V8.45215H28.9453L28.8551 9.46249L27.9301 19.8438H19.5V16.0766Z" fill="white"/>
<path d="M19.5231 25.8593L19.5061 25.8642L15.3111 24.7308L15.043 21.7266H11.2612L11.7889 27.6412L19.5049 29.7837L19.5231 29.7788V25.8593Z" fill="#EBEBEB"/>
<path d="M24.1642 19.6841L23.7108 24.7285L19.5098 25.8619V29.7814L27.2318 27.6413L27.289 27.0051L27.9435 19.6841H24.1642Z" fill="white"/>
<path d="M19.5134 8.45215V12.2193H10.4143L10.3387 11.3723L10.1668 9.46249L10.0767 8.45215H19.5134ZM19.5 16.0766V19.8438H15.3575L15.2819 18.9968L15.1113 17.087L15.0211 16.0766H19.5Z" fill="#EBEBEB"/>
</svg>
