<svg width="39" height="40" viewBox="0 0 39 40" fill="none" xmlns="http://www.w3.org/2000/svg">
<path d="M34.9635 2.5H4.0365C3.1534 2.5 2.4375 3.23425 2.4375 4.14V35.86C2.4375 36.7657 3.1534 37.5 4.0365 37.5H34.9635C35.8466 37.5 36.5625 36.7657 36.5625 35.86V4.14C36.5625 3.23425 35.8466 2.5 34.9635 2.5Z" fill="#3178C6"/>
<path fill-rule="evenodd" clip-rule="evenodd" d="M22.2361 29.6988V33.5338C22.9155 33.8777 23.6395 34.1197 24.386 34.2525C25.2486 34.4158 26.1242 34.4962 27.0014 34.4925C27.8563 34.4967 28.7093 34.4083 29.5462 34.2288C30.2975 34.073 31.0144 33.7764 31.6607 33.3538C32.2607 32.9565 32.7553 32.4127 33.1 31.7713C33.7175 30.4429 33.7989 28.9183 33.3267 27.5288C33.1274 27.0091 32.8305 26.5347 32.4529 26.1325C32.0475 25.7048 31.587 25.336 31.0842 25.0363C30.5054 24.6885 29.9039 24.382 29.2841 24.1188C28.7966 23.9113 28.3579 23.7096 27.9679 23.5138C27.6215 23.3437 27.29 23.1433 26.977 22.915C26.7319 22.7388 26.519 22.5196 26.3482 22.2675C26.2005 22.0386 26.1236 21.7694 26.1276 21.495C26.1243 21.2425 26.1929 20.9944 26.325 20.7813C26.4685 20.5582 26.6598 20.3717 26.8844 20.2363C27.159 20.0705 27.4577 19.951 27.7692 19.8825C28.1517 19.7954 28.5426 19.7534 28.9343 19.7575C29.2638 19.7587 29.5928 19.7829 29.9191 19.83C30.2714 19.8789 30.62 19.9528 30.9623 20.0513C31.3105 20.1502 31.6511 20.2756 31.9812 20.4263C32.3015 20.5727 32.608 20.7493 32.8965 20.9538V17.375C32.2958 17.1419 31.6728 16.9743 31.0379 16.875C30.2712 16.7606 29.497 16.7067 28.7223 16.7138C27.8754 16.7091 27.031 16.8077 26.2068 17.0075C25.4618 17.1821 24.7535 17.4924 24.1154 17.9238C23.5227 18.3287 23.0333 18.8735 22.6883 19.5125C22.3226 20.2221 22.1417 21.0165 22.163 21.8188C22.136 22.8797 22.4767 23.9162 23.1246 24.7438C23.9194 25.6614 24.9217 26.3649 26.0435 26.7925C26.5553 27.0092 27.0327 27.2213 27.4755 27.4288C27.875 27.6111 28.259 27.8272 28.6236 28.075C28.9176 28.2712 29.1758 28.5187 29.3865 28.8063C29.5718 29.0671 29.6701 29.3823 29.6668 29.705C29.6685 29.9468 29.608 30.1848 29.4913 30.395C29.3617 30.6208 29.1796 30.8102 28.9612 30.9463C28.6879 31.1171 28.3889 31.2405 28.0763 31.3113C27.6692 31.4046 27.2528 31.4487 26.8357 31.4425C26.017 31.441 25.2049 31.2929 24.4359 31.005C23.6326 30.7077 22.8875 30.2653 22.2361 29.6988ZM15.9547 20.1513H20.8297V16.9925H7.23694V20.1513H12.09V34.2188H15.9547V20.1513Z" fill="white"/>
</svg>
